<?xml version="1.0" encoding="UTF-8"?>
<svg width="270px" height="203px" viewBox="0 0 270 203" version="1.1" xmlns="http://www.w3.org/2000/svg" xmlns:xlink="http://www.w3.org/1999/xlink">
    <!-- Generator: Sketch 53 (72520) - https://sketchapp.com -->
    <title>Group 5</title>
    <desc>Created with Sketch.</desc>
    <g id="Desktop-Version" stroke="none" stroke-width="1" fill="none" fill-rule="evenodd">
        <g id="All-Barber-Shops" transform="translate(-399.000000, -463.000000)">
            <g id="Group-10-Copy" transform="translate(398.000000, 462.000000)">
                <g id="Group-5" transform="translate(1.000000, 1.000000)">
                    <path d="M2,0 L268,0 C269.104569,-2.02906125e-16 270,0.8954305 270,2 L270,203 L0,203 L0,2 C-1.3527075e-16,0.8954305 0.8954305,2.02906125e-16 2,0 Z" id="Rectangle-Copy-2" fill="#EFF5F2"></path>
                    <g id="undraw_barber_3uel" transform="translate(39.000000, 42.000000)" fill-rule="nonzero">
                        <path d="M192.167832,82.9426573 C192.195391,73.111178 187.437042,63.8812332 179.412587,58.2008392 C179.521959,57.1542981 179.577975,56.1028671 179.58042,55.0506294 C179.58042,38.4117483 166.281399,24.9230769 149.874126,24.9230769 C144.821922,24.9176709 139.854456,26.220973 135.455664,28.706014 C123.843357,21.0662937 108.683077,16.4425175 92.0979021,16.4425175 C65.1121678,16.4425175 41.8993007,28.6858741 31.6011189,46.2411189 C31.0288112,46.2075524 30.4531469,46.1890909 29.8724476,46.1890909 C13.4685315,46.1890909 0.166153846,59.6777622 0.166153846,76.3166434 C0.154504112,82.1951292 1.85316739,87.9500581 5.0551049,92.88 L5.0551049,92.88 C5.0551049,107.850629 19.1848951,119.984895 36.6075524,119.984895 L163.005315,119.984895 C176.69035,119.984895 187.784056,110.457063 187.784056,98.7020979 L187.784056,98.7020979 C190.662621,93.9502521 192.179159,88.4983796 192.167832,82.9426573 Z" id="Path" fill="#38845B" opacity="0.1"></path>
                        <path d="M139.23021,27.5462937 C137.964755,28.08 136.695944,28.6153846 135.517762,29.3202797 C134.982378,29.6391608 134.468811,29.9916084 133.918322,30.281958 C133.325874,30.5974825 132.696503,30.8358042 132.072168,31.0909091 C130.349236,31.7946298 128.676024,32.6144137 127.064056,33.5446154 C127.203357,31.7404196 126.93986,29.7801399 125.860699,28.3737063 C125.702145,28.1652755 125.525821,27.9709817 125.333706,27.793007 C124.57007,27.0847552 123.487552,26.9018182 122.737343,26.2825175 C123.193846,25.4802797 124.207552,24.7518881 124.897343,24.1393007 C125.642517,23.4802797 126.415664,22.8553846 127.216783,22.2646154 C128.817993,21.0821577 130.522835,20.0468944 132.31049,19.1714685 C133.445035,18.6159441 134.62993,18.1191608 135.881958,17.9496503 C136.039691,17.9141242 136.204583,17.9287944 136.353566,17.9916084 C136.548252,18.099021 136.618741,18.3406993 136.665734,18.5572028 C136.899021,19.6397203 137.018182,20.7507692 137.212867,21.8416783 C137.30829,22.4023207 137.437761,22.9566329 137.600559,23.5015385 C137.809772,24.1459682 138.051195,24.7794923 138.323916,25.3997203 C138.627133,26.1146853 138.929231,26.8302098 139.23021,27.5462937 Z" id="Path" fill="#FBBEBE"></path>
                        <path d="M103.312448,58.1387413 C103.311608,62.7086889 100.374882,66.7609172 96.0322511,68.1842863 C91.6896203,69.6076554 86.9239948,68.0800004 84.2181818,64.3972028 C82.8834127,62.5836647 82.1641285,60.3905243 82.1655944,58.1387413 C82.1655944,52.299199 86.8994787,47.5653147 92.739021,47.5653147 C98.5785632,47.5653147 103.312448,52.299199 103.312448,58.1387413 L103.312448,58.1387413 Z" id="Path" fill="#BE6F72"></path>
                        <path d="M88.951049,67.4567832 C89.5166434,68.4318881 90.0872727,69.4153846 90.4497902,70.4777622 C90.8123077,71.5401399 90.9532867,72.7166434 90.6545455,73.8025175 C94.2562238,71.906014 98.5426573,72.0587413 102.506853,71.0987413 C102.612896,71.0865748 102.710516,71.0350696 102.78042,70.9544056 C102.829197,70.8431537 102.829197,70.7165666 102.78042,70.6053147 C101.950547,67.5343109 101.631323,64.3477419 101.835524,61.1731469 L99.7661538,62.3966434 C98.8602978,62.9561771 97.9215318,63.4605886 96.954965,63.9071329 C95.5871329,64.5062937 94.1353846,64.8688112 92.7071329,65.2883916 C91.5759441,65.6240559 89.3303497,66.0587413 88.6187413,67.0472727 C88.7471252,67.1684871 88.8588684,67.3061908 88.951049,67.4567832 L88.951049,67.4567832 Z" id="Path" fill="#BE6F72"></path>
                        <path d="M83.1255944,53.238042 C82.4374825,53.514965 81.6285315,53.8338462 80.9958042,53.4461538 C80.5309091,53.1591608 80.3395804,52.5633566 80.3681119,52.0179021 C80.3966434,51.4724476 80.6047552,50.9555245 80.7692308,50.4352448 C81.1048951,49.3661538 81.2861538,48.2534266 81.6604196,47.1893706 C82.0346853,46.1253147 82.6455944,45.0998601 83.6156643,44.5376224 C85.4013986,43.5037762 87.7124476,44.358042 89.6945455,43.7857343 C90.5337063,43.5457343 91.2637762,43.0623776 92.0441958,42.6830769 C92.8246154,42.3037762 93.7023776,42.0117483 94.5448951,42.2148252 C95.5317483,42.4447552 96.2601399,43.2755245 97.1798601,43.6984615 C98.1868531,44.1616783 99.3918881,44.1297902 100.308252,44.7490909 C100.957762,45.1888112 101.367273,45.8987413 101.731469,46.5952448 C102.896673,48.8336663 103.816694,51.191396 104.475524,53.6274126 C104.739007,54.4996965 104.889605,55.4021536 104.923636,56.3127273 C104.932028,57.4774825 104.616503,58.6187413 104.304336,59.7432168 L103.800839,61.5222378 C103.614545,62.1935664 103.423217,62.8648951 103.070769,63.4724476 C102.718322,64.08 102.174545,64.5918881 101.501538,64.7681119 C100.662378,64.9846154 99.6855944,64.565035 99.3197203,63.7795804 C99.0948252,63.2928671 99.1048951,62.7356643 99.0931469,62.2002797 C99.0745939,61.1517913 98.9622579,60.1070659 98.7574825,59.0786014 C98.6534266,58.5633566 98.5141259,58.027972 98.1633566,57.6386014 C97.7102098,57.1351049 96.9885315,56.9672727 96.3172028,56.9555245 C95.5317483,56.9454545 94.6707692,57.1586014 94.2125874,57.7946853 C93.845035,58.3082517 93.7812587,59.0299301 93.2928671,59.431049 C93.0757451,59.5975953 92.8177437,59.7025352 92.546014,59.7348252 C91.4058392,59.87691 90.3159944,59.2221717 89.906014,58.1488112 C89.7516084,57.7057343 89.6760839,57.1552448 89.2565035,56.9471329 C89.0383217,56.838042 88.7781818,56.8581818 88.5448951,56.7876923 C87.8299301,56.5711888 87.641958,55.6648951 87.5765035,54.9213986 C87.500979,54.0503497 87.7913287,52.3300699 86.7088112,52.2713287 C85.5423776,52.2075524 84.198042,52.8805594 83.1255944,53.238042 Z" id="Path" fill="#3F3D56"></path>
                        <path d="M85.6615385,64.6993007 C85.288951,64.8788811 84.8811189,65.0886713 84.7351049,65.4746853 C84.678042,65.6257343 84.667972,65.7918881 84.6159441,65.9462937 C84.3793007,66.6293706 83.4562238,66.7636364 82.9795804,67.3074126 C82.7646051,67.5822845 82.6199977,67.9054906 82.5583217,68.248951 C82.2399303,69.6034525 82.3429925,71.0229004 82.8537063,72.3172028 C83.0016979,72.7273536 83.2299155,73.1039127 83.525035,73.4248951 C84.3776224,74.2942657 85.8478322,74.2774825 86.9102098,73.685035 C87.9725874,73.0925874 88.706014,72.0537063 89.3286713,70.9997203 C89.6587727,70.4692349 89.9348395,69.9069808 90.1527273,69.3213986 C90.3442216,68.7259064 90.4807366,68.114117 90.5605594,67.4937063 C90.9331469,65.0752448 91.4198601,62.3932867 91.252028,59.9412587 C90.7485315,59.9093706 89.7868531,59.8741259 89.3420979,60.1896503 C88.7848951,60.5857343 88.9393007,61.3846154 88.7379021,61.9636364 C88.2612587,63.3566434 86.8783217,64.0917483 85.6615385,64.6993007 Z" id="Path" fill="#3F3D56"></path>
                        <path d="M86.0979021,65.0198601 C85.4685315,65.0584615 84.3406993,64.361958 83.7096503,64.3972028 C83.2802005,63.6476307 82.9006362,62.8705609 82.5734266,62.071049 C82.9090909,61.5893706 83.4495105,61.4718881 84.2668531,62.071049 C84.9230769,62.5325874 85.8293706,64.1286713 86.0979021,65.0198601 Z" id="Path" fill="#3F3D56"></path>
                        <path d="M95.5854545,38.5023776 C94.9023776,38.8632168 94.4794406,38.88 94.1420979,38.8078322 C93.8047552,38.7356643 93.1351049,39.0713287 93.1351049,39.0713287 C87.219021,41.0953846 86.9857343,42.0503497 86.9857343,42.0503497 L93.834965,39.6318881 C95.1524476,39.0545455 95.1776224,39.2576224 95.1776224,39.2576224 C96.1846154,40.2041958 97.4668531,39.5630769 97.4668531,39.5630769 C97.4668531,39.5630769 99.2408392,38.7239161 98.7188811,37.9166434 C98.1969231,37.1093706 96.2702098,38.1482517 95.5854545,38.5023776 Z M98.4386014,38.3513287 C98.4386014,38.3513287 97.9351049,39.693986 96.1241958,39.4758042 C96.1241958,39.4758042 95.2346853,39.3448951 95.6106294,38.681958 C95.6106294,38.681958 97.4567832,37.9065734 97.9451748,37.961958 C98.4335664,38.0173427 98.4335664,38.358042 98.4335664,38.358042 L98.4386014,38.3513287 Z" id="Shape" fill="#E8E8F0"></path>
                        <path d="M95.5854545,38.5023776 C94.9023776,38.8632168 94.4794406,38.88 94.1420979,38.8078322 C93.8047552,38.7356643 93.1351049,39.0713287 93.1351049,39.0713287 C87.219021,41.0953846 86.9857343,42.0503497 86.9857343,42.0503497 L93.834965,39.6318881 C95.1524476,39.0545455 95.1776224,39.2576224 95.1776224,39.2576224 C96.1846154,40.2041958 97.4668531,39.5630769 97.4668531,39.5630769 C97.4668531,39.5630769 99.2408392,38.7239161 98.7188811,37.9166434 C98.1969231,37.1093706 96.2702098,38.1482517 95.5854545,38.5023776 Z M98.4386014,38.3513287 C98.4386014,38.3513287 97.9351049,39.693986 96.1241958,39.4758042 C96.1241958,39.4758042 95.2346853,39.3448951 95.6106294,38.681958 C95.6106294,38.681958 97.4567832,37.9065734 97.9451748,37.961958 C98.4335664,38.0173427 98.4335664,38.358042 98.4335664,38.358042 L98.4386014,38.3513287 Z" id="Shape" fill="#000000" opacity="0.1"></path>
                        <path d="M95.9613986,34.7597203 C94.9376224,34.7932867 94.7244755,35.5586014 94.7244755,35.5586014 C94.3035213,36.0610256 94.2645513,36.7809455 94.6288112,37.3258741 L92.8111888,39.1334266 C92.4668155,39.2663128 92.170749,39.5003574 91.961958,39.8047552 C91.961958,39.8047552 87.9709091,43.3292308 88.0296503,43.6497902 C88.0296503,43.6497902 88.6808392,43.9854545 92.8111888,40.220979 L93.8953846,39.260979 C93.8953846,39.260979 94.1353846,37.4668531 95.8288112,37.1261538 C95.8288112,37.1261538 95.9966434,37.2 96.0855944,36.8005594 C96.1805262,36.60901 96.3070523,36.4348239 96.4598601,36.2853147 C96.6847552,36.0772028 96.9851748,34.7244755 95.9613986,34.7597203 Z M96.2483916,35.9731469 C96.2483916,35.9731469 95.6995804,37.3896503 94.9174825,36.9801399 C94.1353846,36.5706294 94.8956643,35.6257343 94.8956643,35.6257343 C96.2517483,34.3065734 96.2483916,35.9731469 96.2483916,35.9731469 Z" id="Shape" fill="#E8E8F0"></path>
                        <circle id="Oval" fill="#000000" opacity="0.1" cx="92.8464336" cy="39.6218182" r="1"></circle>
                        <path d="M111.786294,32.7759441 C111.154524,32.4431368 110.498701,32.158143 109.824336,31.9233566 C108.927916,31.6691601 108.006868,31.5116198 107.076923,31.4534266 C104.138741,31.1737063 101.191608,31.0114685 98.2355245,30.9667133 C97.7135664,30.9667133 97.1798601,30.954965 96.6847552,31.1345455 C96.242508,31.3042514 95.8418658,31.5669582 95.5099301,31.9048951 C94.9348559,32.4546692 94.4779877,33.1159859 94.1672727,33.8483916 C94.0674763,34.0319052 94.037659,34.2453968 94.0833566,34.4492308 C94.1504895,34.6439161 94.419021,34.7731469 94.5717483,34.6355245 C93.7722963,35.2798527 93.4475789,36.3471613 93.7527273,37.3275524 C93.2789244,37.5753522 92.9689923,38.0526605 92.9353846,38.5862937 C94.1555772,38.8122014 95.4115852,38.7512971 96.6041958,38.4083916 C96.2483916,38.3177622 95.8808392,38.6517483 95.859021,39.0176224 C95.8638344,39.3924062 96.0784564,39.7328188 96.4145455,39.8987413 C96.7474354,40.0562714 97.114152,40.1289228 97.481958,40.1102098 C98.9034965,40.1102098 100.286434,39.6285315 101.704615,39.5664336 C102.788811,39.5177622 103.906573,39.7141259 104.942098,39.3986014 C106.143776,39.026014 107.216224,37.9703497 108.454825,38.1902098 C109.443357,38.3664336 110.087832,39.2844755 110.732308,40.0531469 C111.762797,41.28 113.036643,42.2735664 114.30042,43.2587413 C115.273846,44.0173427 116.290909,44.7960839 117.497622,45.0528671 C117.858745,45.1512886 118.241733,45.1330791 118.591888,45.0008392 C118.884518,44.8442537 119.130145,44.6125303 119.303497,44.3295105 C120.604196,42.4833566 120.605874,40.1588811 120.53035,37.9955245 C120.491748,36.8895105 120.25007,36.7401399 119.226294,36.281958 C118.038042,35.7482517 116.854266,35.2016783 115.674965,34.6422378 C114.372587,34.0335664 113.076364,33.4114685 111.786294,32.7759441 Z" id="Path" fill="#FBBEBE"></path>
                        <path d="M125.389091,36.918042 C125.189034,37.0375967 124.977658,37.1371006 124.758042,37.2151049 C124.39049,37.3023776 124.016224,37.1462937 123.658741,37.0254545 C122.148252,36.521958 120.46993,36.6411189 119.00979,36.0184615 C119.488607,38.766852 118.861825,41.5931017 117.266014,43.8813986 C116.963916,44.311049 116.566154,44.7507692 116.042517,44.7843357 C116.275804,45.500979 116.994126,45.933986 117.675524,46.2562238 C118.763685,46.771236 119.902,47.1727955 121.072448,47.4545455 C121.408112,47.5334266 121.817622,47.572028 122.012308,47.2867133 C122.12979,47.1188811 122.18014,46.8318881 122.386573,46.841958 C122.702098,47.1776224 122.598042,47.8657343 123.034406,48.0167832 C123.170413,48.0514512 123.312944,48.0514512 123.448951,48.0167832 L124.422378,47.848951 C124.714402,47.8236737 124.995699,47.7268335 125.241399,47.566993 C125.395299,47.4333288 125.522319,47.2715627 125.615664,47.0903497 C126.706573,45.2324476 127.126154,43.0825175 127.293986,40.9594406 C127.376224,39.9054545 127.478601,38.7876923 127.406434,37.7303497 C127.339301,36.8240559 126.177902,36.5504895 125.389091,36.918042 Z" id="Path" fill="#E8E8F0"></path>
                        <path d="M125.389091,36.918042 C125.189034,37.0375967 124.977658,37.1371006 124.758042,37.2151049 C124.39049,37.3023776 124.016224,37.1462937 123.658741,37.0254545 C122.148252,36.521958 120.46993,36.6411189 119.00979,36.0184615 C119.488607,38.766852 118.861825,41.5931017 117.266014,43.8813986 C116.963916,44.311049 116.566154,44.7507692 116.042517,44.7843357 C116.275804,45.500979 116.994126,45.933986 117.675524,46.2562238 C118.763685,46.771236 119.902,47.1727955 121.072448,47.4545455 C121.408112,47.5334266 121.817622,47.572028 122.012308,47.2867133 C122.12979,47.1188811 122.18014,46.8318881 122.386573,46.841958 C122.702098,47.1776224 122.598042,47.8657343 123.034406,48.0167832 C123.170413,48.0514512 123.312944,48.0514512 123.448951,48.0167832 L124.422378,47.848951 C124.714402,47.8236737 124.995699,47.7268335 125.241399,47.566993 C125.395299,47.4333288 125.522319,47.2715627 125.615664,47.0903497 C126.706573,45.2324476 127.126154,43.0825175 127.293986,40.9594406 C127.376224,39.9054545 127.478601,38.7876923 127.406434,37.7303497 C127.339301,36.8240559 126.177902,36.5504895 125.389091,36.918042 Z" id="Path" fill="#000000" opacity="0.1"></path>
                        <path d="M69.1267133,91.3577622 C68.6483916,90.7434965 68.1566434,90.0923077 67.4483916,89.7683916 C67.0403538,89.6038085 66.610794,89.4986794 66.1728671,89.4562238 C63.8114685,89.1205594 61.445035,88.7714685 59.0618182,88.706014 C58.2830769,88.6841958 57.4472727,88.706014 56.8128671,89.1608392 C56.0861538,89.6794406 55.8058741,90.6344056 55.7655944,91.5255944 C55.6776147,93.6787103 56.6353287,95.7416713 58.3367832,97.0640559 C59.7633566,98.1516084 61.5658741,98.6064336 63.3247552,98.9655944 C64.2495105,99.1552448 65.1793007,99.3247552 66.1124476,99.4690909 C67.0455944,99.6134266 67.9955245,99.7275524 68.8967832,100.016224 C70.8234965,100.633846 72.5236364,102.03021 74.5443357,102.146014 C74.6392961,102.160674 74.7364507,102.144187 74.8212587,102.099021 C74.9099556,102.027419 74.9696028,101.926019 74.9890909,101.813706 C75.4338462,100.244476 76.9762238,96.4867133 74.9890909,95.3890909 C73.9502098,94.8167832 72.7972028,94.7916084 71.7801399,94.0648951 C70.7630769,93.3381818 69.8987413,92.3496503 69.1267133,91.3577622 Z" id="Path" fill="#BE6F72"></path>
                        <path d="M52.1605594,101.775105 C50.8531469,100.637203 49.048951,100.034685 48.099021,98.5862937 C47.6811189,97.9485315 47.4696503,97.2 47.2598601,96.4648951 L46.6422378,94.2461538 C46.5946571,94.109838 46.5730256,93.9658172 46.5784615,93.8215385 C46.6254545,93.3583217 47.1709091,93.1384615 47.6307692,93.0662937 C49.9804196,92.7004196 52.4274126,93.646993 54.1862937,95.2481119 C55.9451748,96.8492308 57.0746853,99.0579021 57.7376224,101.347133 C57.784252,101.463588 57.7913282,101.592138 57.7577622,101.713007 C57.7003405,101.820461 57.6096625,101.906429 57.4993007,101.958042 C56.6500699,102.461538 55.5088112,103.194965 54.5169231,103.349371 C53.525035,103.503776 52.8671329,102.382657 52.1605594,101.775105 Z" id="Path" fill="#BE6F72"></path>
                        <path d="M109.522238,92.2086713 L116.403357,94.9627972 C117.75278,95.5024231 118.503268,96.9491295 118.167273,98.3630769 L113.046713,119.900979 L100.244476,119.900979 L102.473287,95.3974825 C102.473287,95.3974825 107.34042,91.3695105 109.522238,92.2086713 Z" id="Path" fill="#3F3D56"></path>
                        <path d="M116.168392,89.6240559 C116.040839,89.9026573 115.852867,90.1779021 115.881399,90.4816783 C115.898182,90.6629371 115.992168,90.8341259 115.978741,91.0137063 C115.951888,91.3661538 115.544056,91.5625175 115.191608,91.5658741 C114.839161,91.5692308 114.485035,91.4551049 114.137622,91.5155245 C113.566993,91.6128671 113.180979,92.1381818 112.687552,92.441958 C111.999441,92.8648951 111.14014,92.8397203 110.337902,92.9118881 C108.65958,93.0629371 107.071888,93.6923077 105.553007,94.408951 C104.520839,94.8956643 103.424895,95.52 103.035524,96.5907692 C102.476643,98.1012587 103.560839,99.6923077 103.800839,101.29007 C103.865171,101.827981 103.880899,102.370595 103.847832,102.911329 C103.671608,108.553846 103.367832,114.261818 103.045594,119.897622 L41.525035,119.96979 L44.5544056,114.661259 C47.5082517,109.483636 50.540979,104.208671 54.9969231,100.24951 C55.657894,99.6528134 56.400449,99.1532559 57.2022378,98.7658741 L60.7753846,101.954685 C61.0614439,102.239191 61.3933538,102.473513 61.7572028,102.647832 C62.4285315,102.921399 63.1804196,102.765315 63.9004196,102.788811 C65.285035,102.834126 66.5504895,103.540699 67.7521678,104.23049 C68.6335661,104.70882 69.4813982,105.246565 70.2897902,105.84 C70.7630769,106.202517 71.4461538,106.429091 71.9395804,106.763077 L71.8237762,100.737902 C71.812028,100.194126 71.8036364,99.6369231 71.9664336,99.1183217 C72.281958,98.1113287 73.1832168,97.3997203 73.6162238,96.4413986 C73.8125874,96.0100699 73.9082517,95.5401399 74.0727273,95.0987413 C74.3052638,94.5313293 74.5942701,93.9887395 74.9353846,93.4791608 L77.1625175,89.900979 C77.713007,89.0181818 78.2618182,88.1353846 78.8593007,87.2844755 C81.4724476,83.5569231 84.9902098,80.5711888 88.4123077,77.5753846 C88.3328101,76.7216216 88.529922,75.8649203 88.9745455,75.1317483 C89.1498655,74.8876473 89.2952417,74.6233782 89.4075524,74.3446154 C89.4800163,74.0141561 89.5009629,73.6744812 89.4696503,73.3376224 C89.4696503,73.252028 89.4696503,73.1697902 89.4696503,73.0791608 C89.5068317,72.5303393 89.7362055,72.0121683 90.1174825,71.6156643 C90.5102098,71.2078322 91.0355245,70.9594406 91.5524476,70.7278322 C94.2275618,69.531475 97.0089681,68.5886064 99.8601399,67.9116084 C100.314965,67.8041958 100.796643,67.7034965 101.244755,67.8394406 C101.380699,68.2774825 101.843916,68.4318881 102.307133,68.5426573 L102.604196,68.6114685 C103.390875,68.7813529 104.12459,69.1395716 104.742378,69.6553846 C105.391888,70.2226573 105.838322,70.9812587 106.273007,71.7281119 C109.540699,77.3387413 111.046154,84.6998601 116.101259,88.7765035 C116.346294,88.9695105 116.295944,89.3555245 116.168392,89.6240559 Z" id="Path" fill="#38845B"></path>
                        <path d="M136.783217,20.7121678 C135.014266,24.6008392 131.528392,28.4324476 126.976783,28.4324476 C126.60518,28.4326623 126.233801,28.4141774 125.864056,28.3770629 C125.705502,28.1686321 125.529177,27.9743384 125.337063,27.7963636 C124.573427,27.0881119 123.490909,26.9051748 122.740699,26.2858741 C123.197203,25.4836364 124.210909,24.7552448 124.900699,24.1426573 C125.645874,23.4836364 126.419021,22.8587413 127.22014,22.267972 C128.82135,21.0855143 130.526192,20.050251 132.313846,19.1748252 C133.448392,18.6193007 134.633287,18.1225175 135.885315,17.953007 C136.043047,17.9174809 136.20794,17.932151 136.356923,17.994965 C136.551608,18.1023776 136.622098,18.3440559 136.669091,18.5605594 C136.902378,19.6346853 136.588531,19.6212587 136.783217,20.7121678 Z" id="Path" fill="#000000" opacity="0.1"></path>
                        <circle id="Oval" fill="#FBBEBE" cx="126.976783" cy="16.8503497" r="11.2447552"></circle>
                        <path d="M150.394406,54.2483916 C150.21145,55.6079214 149.892077,56.9455764 149.441119,58.2411189 C149.273287,58.7127273 149.066853,59.1725874 148.853706,59.6257343 C147.603357,62.2758042 146.916923,65.1406993 146.58965,68.0542657 C146.564576,68.2836427 146.522502,68.5108409 146.463776,68.733986 C146.217063,69.6738462 145.696783,70.513007 145.299021,71.3974825 C144.8934,72.3528267 144.556871,73.3360521 144.292028,74.3395804 C144.19631,74.591373 144.164032,74.8628532 144.198042,75.1300699 C144.26014,75.4137063 144.464895,75.6335664 144.609231,75.8903497 C145.354406,77.1742657 144.493427,78.7434965 144.203077,80.1969231 C144.104056,80.7004196 144.06042,81.2475524 143.733147,81.6402797 C143.454545,81.9759441 143.021538,82.1303497 142.61035,82.2713287 C136.74946,84.263807 130.750837,85.8254459 124.662378,86.9437762 C123.754406,87.1116084 122.816224,87.2676923 121.914965,87.0998601 C121.013706,86.932028 120.115804,86.3748252 119.806993,85.5054545 C119.629091,85.001958 119.659301,84.4548252 119.674406,83.9211189 C119.707972,82.8 119.674406,81.6721678 119.613986,80.5426573 C119.419301,76.8251748 118.977902,73.0942657 119.94965,69.5328671 C120.24,68.4822378 120.64951,67.4685315 120.978462,66.4296503 C121.621259,64.4039161 121.787413,62.3093706 121.948531,60.2081119 C122.081119,58.4760839 122.21035,56.7373427 122.598042,55.0288112 C122.886713,53.754965 122.695385,52.4307692 122.678601,51.125035 C122.645351,48.136976 123.523521,45.2097415 125.196084,42.7334266 C125.486434,42.3054545 125.805315,41.8825175 125.958042,41.3907692 C126.172867,40.6858741 126.025175,39.928951 125.927832,39.1972028 C125.682816,37.3315148 125.781793,35.4367194 126.21986,33.6067133 C126.357573,32.9219827 126.619822,32.2683518 126.993566,31.6783217 C127.411469,31.0690909 128.010629,30.6092308 128.60979,30.1762238 C132.088214,27.668489 135.926438,25.7021278 139.993846,24.3440559 C140.368112,25.2906294 140.727273,26.3966434 141.014266,27.365035 C141.052867,27.4959441 141.07972,27.6620979 140.972308,27.746014 C140.864895,27.8299301 140.754126,27.7846154 140.636643,27.787972 C140.388506,27.8148767 140.182452,27.9915899 140.118042,28.2327273 C140.059346,28.4704047 140.081794,28.7208831 140.181818,28.9443357 C140.41007,29.5317483 140.901818,29.9697902 141.375105,30.3843357 L143.754965,32.4604196 C144.039839,32.7269866 144.35077,32.9642618 144.683077,33.1686713 C144.981818,33.3365035 145.307413,33.4556643 145.614545,33.6100699 C146.846434,34.2327273 147.697343,35.4461538 148.172308,36.7418182 C148.647273,38.0374825 148.432448,39.594965 149.051748,40.8251748 C151.109371,44.9034965 151.092587,49.7286713 150.394406,54.2483916 Z" id="Path" fill="#E8E8F0"></path>
                        <path d="M148.83021,96.9213986 C149.553249,99.8360669 149.535363,102.885343 148.778182,105.791329 C148.642238,106.30993 148.482797,106.846993 148.59021,107.372308 C148.652308,107.671049 148.798322,107.951329 148.831888,108.255105 C148.84658,108.532228 148.816545,108.80991 148.742937,109.077483 C147.997762,112.601958 148.264615,116.264056 148.565035,119.860699 C148.437483,119.860699 148.397203,119.919441 148.262937,119.919441 L145.028811,119.919441 C144.971748,118.974545 143.796923,118.266294 143.222937,117.512727 C142.098483,116.016949 141.705948,114.094945 142.153846,112.278042 C142.657343,110.264056 144.140979,108.654545 144.901259,106.72951 C145.74042,104.611469 145.668252,102.213147 146.559441,100.118601 C147.071329,98.9085315 148.027972,97.9636364 148.83021,96.9213986 Z" id="Path" fill="#3F3D56"></path>
                        <path d="M148.83021,96.9213986 C149.553249,99.8360669 149.535363,102.885343 148.778182,105.791329 C148.642238,106.30993 148.482797,106.846993 148.59021,107.372308 C148.652308,107.671049 148.798322,107.951329 148.831888,108.255105 C148.84658,108.532228 148.816545,108.80991 148.742937,109.077483 C147.997762,112.601958 148.264615,116.264056 148.565035,119.860699 C148.437483,119.860699 148.397203,119.919441 148.262937,119.919441 L145.028811,119.919441 C144.971748,118.974545 143.796923,118.266294 143.222937,117.512727 C142.098483,116.016949 141.705948,114.094945 142.153846,112.278042 C142.657343,110.264056 144.140979,108.654545 144.901259,106.72951 C145.74042,104.611469 145.668252,102.213147 146.559441,100.118601 C147.071329,98.9085315 148.027972,97.9636364 148.83021,96.9213986 Z" id="Path" fill="#000000" opacity="0.1"></path>
                        <path d="M142.043077,80.7675524 C139.293986,80.3278322 136.63049,81.7124476 133.975385,82.5532867 C129.918881,83.8372028 125.452867,83.9160839 121.705175,85.9317483 C121.370389,86.0928518 121.066923,86.3122113 120.808951,86.5795804 C120.504778,86.9562189 120.313352,87.4112186 120.256783,87.892028 C120.089273,88.9550544 120.295059,90.0432882 120.839161,90.9717483 C121.072448,91.3678322 121.366154,91.732028 121.547413,92.1566434 C121.977063,93.1636364 121.69007,94.325035 121.616224,95.426014 C121.448392,97.8847552 122.401678,100.278042 122.593007,102.735105 C122.707133,104.183497 122.557762,105.663776 122.898462,107.076923 C123.111608,107.963077 123.512727,108.798881 123.678881,109.695105 C123.845035,110.591329 123.772867,111.467413 123.828252,112.353566 C123.984336,114.892867 125.140699,117.36 124.858741,119.889231 L146.676923,119.961399 C145.867972,117.146853 145.194965,114.236643 145.928392,111.401958 C146.182895,110.505629 146.499177,109.628005 146.874965,108.775385 C148.095105,105.826573 149.348811,102.869371 150.021818,99.751049 C150.694825,96.6327273 150.755245,93.3029371 149.615664,90.3222378 C148.346853,86.9991608 145.64979,84.234965 145.062378,80.7272727 C144.055385,80.593007 143.051748,80.9286713 142.043077,80.7675524 Z" id="Path" fill="#3F3D56"></path>
                        <path d="M119.145734,11.3655944 C118.934266,10.9225175 118.335105,10.6304895 117.932308,10.9107692 C117.52951,11.191049 117.581538,11.8170629 117.482517,12.3205594 C117.291189,13.3107692 116.307692,13.9854545 115.300699,14.1432168 C114.829091,14.2187413 114.303776,14.1885315 113.937902,13.8830769 C113.702265,13.6573782 113.528843,13.3747019 113.434406,13.0623776 C112.427413,10.3770629 113.04,7.24195804 114.688112,4.89902098 C115.037809,4.37401289 115.471586,3.91018336 115.972028,3.52615385 C117.36,2.51916084 119.216224,2.51916084 120.933147,2.57286713 C121.281784,2.61066904 121.634462,2.5699534 121.965315,2.45370629 C122.217425,2.32100375 122.448237,2.15128892 122.65007,1.95020979 C124.276364,0.52027972 126.523636,-0.0805594406 128.692028,0.0151048951 C130.86042,0.110769231 132.946573,0.854265734 134.873287,1.8427972 C135.794685,2.31440559 136.697622,2.84979021 137.419301,3.59496503 C139.153007,5.37902098 139.575944,8.02237762 139.916643,10.4861538 C140.282517,13.1446154 140.646713,15.8769231 140.030769,18.4900699 C139.681678,19.9703497 139.023776,21.4170629 139.100979,22.9359441 C137.706955,23.334059 136.290095,23.6473601 134.858182,23.8741259 C134.186853,23.9798601 133.411469,24.041958 132.91972,23.566993 C132.711764,23.3440647 132.559882,23.0748203 132.476643,22.7815385 C131.944615,21.208951 132.122517,19.4131469 131.318601,17.9597203 C130.635413,16.7552835 129.38357,15.9840418 128.000559,15.9155245 C127.473566,15.8970629 126.874406,16.0262937 126.604196,16.4777622 C126.500612,16.6992103 126.420728,16.9309876 126.365874,17.1692308 C125.993287,18.292028 124.467692,18.8475524 123.462378,18.2215385 C122.958881,17.906014 122.614825,17.3823776 122.16,16.9896503 C121.582657,16.4945455 120.842517,16.2394406 120.194685,15.84 C118.036364,14.5023776 119.981538,13.1194406 119.145734,11.3655944 Z" id="Path" fill="#3F3D56"></path>
                        <path d="M102.313846,68.5443357 C101.395804,68.838042 100.56,69.3700699 99.6671329,69.7443357 C98.0945455,70.4005594 96.3658741,70.5532867 94.7160839,70.9728671 C93.1310544,71.397974 91.6033023,72.0133578 90.1661538,72.8055944 C90.0604196,72.8626573 89.7281119,73.1412587 89.4629371,73.3325874 C89.4629371,73.246993 89.4629371,73.1647552 89.4629371,73.0741259 C89.5001184,72.5253043 89.7294922,72.0071334 90.1107692,71.6106294 C90.5034965,71.2027972 91.0288112,70.9544056 91.5457343,70.7227972 C94.2231844,69.5277659 97.0068515,68.5865785 99.8601399,67.9116084 C100.314965,67.8041958 100.796643,67.7034965 101.244755,67.8394406 C101.387413,68.2774825 101.850629,68.4318881 102.313846,68.5443357 Z" id="Path" fill="#3F3D56"></path>
                        <path d="M78.5202797,111.584895 C80.3261538,113.598881 81.9457343,115.797483 84.046993,117.495944 C81.6218182,114.275245 78.1426573,112.125315 74.9974825,109.696783 C74.3597203,109.203357 73.0841958,108.503497 72.6981818,107.79021 C72.088951,106.672448 73.434965,107.466294 73.9938462,107.77007 C75.7393007,108.718322 77.2027972,110.118042 78.5202797,111.584895 Z" id="Path" fill="#000000" opacity="0.1"></path>
                        <path d="M143.496503,52.7966434 C143.410909,53.5216783 143.140699,54.2097902 142.867133,54.8844755 C142.195804,56.5627972 141.475804,58.2243357 140.462098,59.713007 C139.763916,60.7384615 138.933147,61.6648951 138.204755,62.6668531 C137.457079,63.7303303 136.771191,64.8359323 136.15049,65.9781818 C135.005874,68.0055944 133.89035,70.0497902 132.803916,72.1107692 C132.285315,73.0976224 131.77007,74.0928671 131.10042,74.9840559 C130.630464,75.585554 130.126126,76.1593786 129.58993,76.7026573 C128.415105,77.9412587 127.208392,79.0858741 126.157762,80.4285315 C125.637483,81.0998601 124.76979,81.3583217 123.959161,81.5865734 C123.68809,81.6767424 123.405499,81.7276089 123.12,81.7376224 C122.832572,81.7176031 122.549738,81.654814 122.280839,81.5513287 C121.375499,81.2750488 120.489613,80.9386365 119.629091,80.5443357 C119.434406,76.8268531 118.993007,73.0959441 119.964755,69.5345455 C120.255105,68.4839161 120.664615,67.4702098 120.993566,66.4313287 C121.636364,64.4055944 121.802517,62.311049 121.963636,60.2097902 C122.163357,59.7885315 122.376503,59.3706294 122.582937,58.9644755 C123.982657,56.1986014 125.162517,53.1524476 124.798322,50.0693706 C124.705568,49.5135648 124.64115,48.9534004 124.605315,48.391049 C124.608801,47.7015632 124.72502,47.0172881 124.949371,46.3653147 C125.965943,43.2488966 128.296647,40.7341898 131.326993,39.4841958 C131.799893,39.2632199 132.315501,39.1486405 132.837483,39.1485315 C133.508811,39.1837762 134.151608,39.5328671 134.806154,39.4053147 C137.023217,40.3804196 138.817343,42.0453147 140.158322,44.0626573 C141.499301,46.08 141.573147,48.7753846 143.031608,50.7088112 C143.462937,51.2962238 143.58042,52.0732867 143.496503,52.7966434 Z" id="Path" fill="#000000" opacity="0.1"></path>
                        <polygon id="Path" fill="#000000" points="94.9695105 43.6883916 94.899021 43.5356643 92.1566434 44.8011189 91.6984615 45.0125874 91.241958 45.2223776 95.1088112 53.6055944 95.5653147 53.3941259 96.0234965 53.1826573 98.7658741 51.9172028 98.6953846 51.7661538 95.953007 53.0316084 95.8825175 52.8788811 98.6248951 51.6134266 98.5544056 51.4606993 95.812028 52.7261538 95.7415385 52.5734266 98.4839161 51.307972 98.4151049 51.1552448 95.671049 52.4206993 95.6005594 52.2696503 98.3446154 51.0041958 98.2741259 50.8514685 95.5300699 52.1169231 95.4595804 51.9641958 98.2036364 50.6987413 98.1331469 50.546014 95.3907692 51.8114685 95.3202797 51.6587413 98.0626573 50.3932867 97.9921678 50.2422378 95.2497902 51.5076923 95.1793007 51.354965 97.9216783 50.0895105 97.8511888 49.9367832 95.1088112 51.2022378 95.0383217 51.0495105 97.7823776 49.7840559 97.7118881 49.6313287 94.9678322 50.8967832 94.8973427 50.7457343 97.6413986 49.4786014 97.5709091 49.3275524 94.8268531 50.593007 94.758042 50.4402797 97.5004196 49.1748252 97.4299301 49.0220979 94.6875524 50.2875524 94.6170629 50.1348252 97.3594406 48.8693706 97.288951 48.7166434 94.5465734 49.9820979 94.4760839 49.831049 97.2184615 48.5655944 97.1496503 48.4128671 94.4055944 49.6783217 94.3351049 49.5255944 97.0791608 48.2601399 97.0086713 48.1074126 94.2646154 49.3728671 94.1958042 49.2201399 96.9381818 47.9563636 96.8676923 47.8036364 94.1253147 49.0690909 94.0548252 48.9163636 96.7972028 47.6509091 96.7267133 47.4981818 93.9843357 48.7636364 93.9138462 48.6109091 96.6562238 47.3454545 96.5874126 47.1927273 93.8433566 48.4598601 93.7728671 48.3071329 96.5169231 47.0416783 96.4464336 46.888951 93.7023776 48.1544056 93.6318881 48.0016783 96.3759441 46.7362238 96.3054545 46.5834965 93.5630769 47.848951 93.4925874 47.6962238 96.234965 46.4307692 96.1644755 46.2797203 93.4220979 47.5451748 93.3516084 47.3924476 96.093986 46.126993 96.0234965 45.9742657 93.2811189 47.2397203 93.2106294 47.086993 95.9546853 45.8215385 95.8841958 45.6704895 93.1401399 46.9342657 93.0696503 46.7832168 95.8137063 45.5177622 95.7432168 45.365035 92.9991608 46.6304895 92.9303497 46.4777622 95.6727273 45.2123077 95.6022378 45.0595804 92.8598601 46.325035 92.7893706 46.1723077 95.5317483 44.9068531 95.4612587 44.7558042 92.7188811 46.0212587 92.6483916 45.8685315 95.3907692 44.6030769 95.321958 44.4503497 92.5779021 45.7158042 92.5074126 45.5630769 95.2514685 44.2976224 95.180979 44.1448951 92.4369231 45.4103497 92.3664336 45.2593007 95.1104895 43.9938462 95.04 43.8411189 92.2959441 45.1065734 92.2271329 44.9538462"></polygon>
                        <path d="M103.579301,62.1264336 C103.225175,62.7255944 102.683077,63.2458741 102.01007,63.4220979 C101.170909,63.6386014 100.194126,63.219021 99.8282517,62.4335664 C99.6033566,61.9468531 99.6134266,61.3896503 99.6016783,60.8542657 C99.5831254,59.8057773 99.4707893,58.761052 99.266014,57.7325874 C99.161958,57.2173427 99.0226573,56.681958 98.6718881,56.2925874 C98.2187413,55.7890909 97.4970629,55.6212587 96.8257343,55.6095105 C96.0402797,55.5994406 95.1793007,55.8125874 94.7211189,56.4486713 C94.3535664,56.9622378 94.2897902,57.6839161 93.8013986,58.085035 C93.5842765,58.2515813 93.3262751,58.3565212 93.0545455,58.3888112 C91.9143706,58.530896 90.8245258,57.8761577 90.4145455,56.8027972 C90.2601399,56.3597203 90.1846154,55.8092308 89.765035,55.6011189 C89.5468531,55.492028 89.2867133,55.5121678 89.0534266,55.4416783 C88.3384615,55.2251748 88.1504895,54.3188811 88.085035,53.5753846 C88.0095105,52.7043357 88.2998601,50.9840559 87.2173427,50.9253147 C86.0593007,50.8615385 84.714965,51.5345455 83.6425175,51.892028 C82.9544056,52.168951 82.1454545,52.4878322 81.5127273,52.1001399 C81.0478322,51.8131469 80.8565035,51.2173427 80.885035,50.6718881 C80.9135664,50.1264336 81.1216783,49.6095105 81.2861538,49.0892308 C81.5681119,48.2097902 81.7376224,47.2967832 81.9960839,46.4039161 C81.8745497,46.6565008 81.7664274,46.9153221 81.6721678,47.1793007 C81.2995804,48.2383217 81.125035,49.3611189 80.7826573,50.4251748 C80.6148252,50.9454545 80.4100699,51.4623776 80.3815385,52.0078322 C80.353007,52.5532867 80.5493706,53.1490909 81.0092308,53.4360839 C81.641958,53.8237762 82.4509091,53.5048951 83.139021,53.227972 C84.2114685,52.8704895 85.5558042,52.1974825 86.7138462,52.2612587 C87.7963636,52.32 87.506014,54.0402797 87.5815385,54.9113287 C87.646993,55.6548252 87.834965,56.5611189 88.5499301,56.7776224 C88.7832168,56.8481119 89.0433566,56.827972 89.2615385,56.9370629 C89.6811189,57.1451748 89.765035,57.6956643 89.911049,58.1387413 C90.3210293,59.2121018 91.4108741,59.8668401 92.551049,59.7247552 C92.8227786,59.6924652 93.08078,59.5875253 93.2979021,59.420979 C93.7862937,59.0198601 93.8500699,58.2981818 94.2176224,57.7846154 C94.6758042,57.1451748 95.5367832,56.932028 96.3222378,56.9454545 C96.9935664,56.9555245 97.7236364,57.1233566 98.1683916,57.6285315 C98.5191608,58.0179021 98.6584615,58.5532867 98.7625175,59.0685315 C98.9672928,60.096996 99.0796289,61.1417213 99.0981818,62.1902098 C99.1099301,62.7255944 99.0981818,63.2827972 99.3247552,63.7695105 C99.688951,64.554965 100.667413,64.9745455 101.506573,64.758042 C102.177902,64.5818182 102.721678,64.0615385 103.075804,63.4623776 C103.345392,62.9731622 103.55287,62.4522131 103.693427,61.9116084 C103.656503,61.9888112 103.61958,62.0576224 103.579301,62.1264336 Z" id="Path" fill="#000000" opacity="0.1"></path>
                        <path d="M112.212587,61.012028 C110.86993,59.7230769 109.656503,58.2965035 108.451469,56.8732867 C107.296783,55.5121678 106.138741,54.1443357 105.208951,52.6220979 C104.633287,51.6805594 104.11972,50.6534266 103.235245,49.9938462 C102.563916,49.4903497 101.743217,49.2553846 101.001399,48.871049 C100.467692,48.5941259 99.9759441,48.2433566 99.448951,47.9563636 C98.2994271,47.3350049 97.0056126,47.0297944 95.6995804,47.0718881 C95.1574825,47.0903497 94.5415385,47.2162238 94.2629371,47.6827972 C94.1672727,47.8422378 94.121958,48.0285315 94.0246154,48.1862937 C93.7241958,48.6897902 93.0008392,48.8324476 92.7541259,49.3611189 C92.3379021,50.2506294 93.5932867,51.067972 93.6721678,52.0464336 C93.7090909,52.5365035 93.4388811,52.993007 93.36,53.478042 C93.2257343,54.3172028 93.6604196,55.1177622 94.08,55.8495105 C94.9779021,57.4170629 96.0704895,59.133986 97.8344056,59.5283916 C98.4587413,59.6676923 99.1183217,59.6223776 99.7275524,59.8204196 C100.218583,60.0064828 100.67306,60.2774644 101.07021,60.620979 C102.727464,61.9272136 104.188039,63.4652264 105.406993,65.1876923 C105.974266,65.9882517 106.487832,66.8240559 107.06014,67.6195804 C108.88165,70.1398695 111.271967,72.1949562 114.036923,73.6179021 L116.096224,67.0724476 C116.413427,66.0654545 116.663497,64.6841958 115.760559,63.8987413 C114.629371,62.88 113.325315,62.0760839 112.212587,61.012028 Z" id="Path" fill="#FBBEBE"></path>
                        <path d="M134.62993,38.5728671 C133.975385,38.6987413 133.325874,38.3513287 132.661259,38.3160839 C132.139241,38.3158651 131.623563,38.4304602 131.150769,38.6517483 C128.120952,39.9025034 125.790519,42.4169189 124.773147,45.5328671 C124.550894,46.1875385 124.436398,46.8739496 124.434126,47.5653147 C124.444196,48.1275524 124.561678,48.6813986 124.627133,49.2436364 C124.991329,52.3216783 123.811469,55.3695105 122.413427,58.1387413 C121.63972,59.6676923 120.766993,61.2805594 120.94993,62.9840559 C120.973427,63.2123077 121.01035,63.4690909 120.871049,63.6553846 C120.703217,63.8769231 120.340699,63.8886713 120.184615,64.121958 C120.028531,64.3552448 120.171189,64.7076923 120.046993,64.9711888 C119.879161,65.3437762 119.332028,65.2984615 118.940979,65.1658741 C117.869062,64.8031478 116.876202,64.2392174 116.015664,63.5043357 C114.620979,64.3183217 113.128951,65.2883916 112.670769,66.8358042 C112.563141,67.2306126 112.488479,67.6336754 112.447552,68.0408392 L111.727552,74.0492308 C111.631888,74.8447552 111.584895,75.7779021 112.185734,76.3082517 C113.221259,77.2246154 115.065734,76.038042 116.173427,76.8671329 C116.457063,77.0786014 116.641678,77.3941259 116.844755,77.6811189 C118.054825,79.340979 120.137622,80.071049 122.091189,80.7020979 C122.360395,80.8042775 122.643116,80.8664761 122.93035,80.8867133 C123.216057,80.8786802 123.498935,80.8277621 123.76951,80.7356643 C124.581818,80.5074126 125.447832,80.2422378 125.968112,79.5793007 C127.02042,78.2366434 128.227133,77.092028 129.401958,75.8534266 C129.937285,75.3093385 130.441578,74.7355649 130.912448,74.1348252 C131.583776,73.241958 132.097343,72.2467133 132.615944,71.2598601 C133.70014,69.1988811 134.814545,67.1546853 135.959161,65.1272727 C136.586271,63.9896826 137.278324,62.8891221 138.031888,61.831049 C138.761958,60.8240559 139.591049,59.900979 140.289231,58.8772028 C141.296224,57.3868531 142.01958,55.7186014 142.694266,54.0486713 C142.967832,53.3773427 143.238042,52.6841958 143.325315,51.9608392 C143.412587,51.2374825 143.295105,50.4604196 142.855385,49.878042 C141.396923,47.9429371 141.324755,45.2492308 139.983776,43.2318881 C138.642797,41.2145455 136.848671,39.5462937 134.62993,38.5728671 Z" id="Path" fill="#E8E8F0"></path>
                        <path d="M95.0148252,44.3765035 C94.9355284,44.426921 94.8826666,44.5099017 94.8704895,44.6030769 C94.8704895,44.686993 94.9393007,44.7524476 94.9762238,44.827972 C95.0786014,45.0427972 94.9141259,45.2911888 94.7261538,45.4388811 C94.5381818,45.5865734 94.3099301,45.7006993 94.2075524,45.9172028 C94.1918197,45.945898 94.1848193,45.9785666 94.1874126,46.0111888 C94.1987601,46.0554152 94.2247988,46.0944733 94.2612587,46.121958 C94.3717774,46.2490202 94.5152285,46.3431055 94.6758042,46.3938462 C94.9325874,46.4475524 95.1793007,46.278042 95.3974825,46.1387413 C95.6341563,45.9890759 95.886234,45.8652878 96.1493706,45.7695105 C96.2308374,45.7454325 96.3075017,45.7073842 96.3759441,45.6570629 C96.4598204,45.5734222 96.5115223,45.4628871 96.521958,45.3448951 C96.579021,44.9236364 96.3541259,44.5191608 96.0973427,44.1700699 C95.7885315,43.7588811 95.2783217,44.1499301 95.0148252,44.3765035 Z" id="Path" fill="#3F3D56"></path>
                        <path d="M49.7199048,89.1059185 L66.7159887,89.1059185 C67.5665072,89.1059185 68.2559887,89.7954 68.2559887,90.6459185 L68.2559887,97.8489954 C68.2559887,98.6995139 67.5665072,99.3889954 66.7159887,99.3889954 L49.7199048,99.3889954 C48.8693863,99.3889954 48.1799048,98.6995139 48.1799048,97.8489954 L48.1799048,90.6459185 C48.1799048,89.7954 48.8693863,89.1059185 49.7199048,89.1059185 Z" id="Rectangle" fill="#3F3D56" transform="translate(58.217947, 94.247457) rotate(27.040000) translate(-58.217947, -94.247457) "></path>
                        <polygon id="Rectangle" fill="#E8E8F0" transform="translate(58.240661, 94.237589) rotate(27.040000) translate(-58.240661, -94.237589) " points="49.803738 90.0434634 66.6775841 90.0434634 66.6775841 98.4317151 49.803738 98.4317151"></polygon>
                        <circle id="Oval" fill="#E6E8EC" transform="translate(50.148720, 90.110055) rotate(-62.960000) translate(-50.148720, -90.110055) " cx="50.1487196" cy="90.1100553" r="1"></circle>
                        <circle id="Oval" fill="#E6E8EC" transform="translate(66.424282, 98.439000) rotate(-62.960000) translate(-66.424282, -98.439000) " cx="66.4242822" cy="98.4389999" r="1"></circle>
                        <g id="Group" opacity="0.1" transform="translate(112.783217, 9.566434)" fill="#000000">
                            <path d="M27.2441958,7.7420979 C26.8951049,9.22237762 26.2372028,10.6690909 26.3144056,12.187972 C24.920382,12.586087 23.5035213,12.8993881 22.0716084,13.1261538 C21.4002797,13.2318881 20.6248951,13.293986 20.1331469,12.819021 C19.9251903,12.5960927 19.7733088,12.3268483 19.6900699,12.0335664 C19.158042,10.460979 19.3359441,8.66517483 18.532028,7.21174825 C17.84884,6.00731152 16.5969969,5.23606975 15.213986,5.16755245 C14.686993,5.14909091 14.0878322,5.27832168 13.8176224,5.72979021 C13.7140389,5.95123823 13.6341545,6.18301553 13.5793007,6.42125874 C13.2067133,7.54405594 11.6811189,8.09958042 10.6758042,7.47356643 C10.1723077,7.15804196 9.82825175,6.63440559 9.37342657,6.24167832 C8.79608392,5.74657343 8.05594406,5.49146853 7.40811189,5.09202797 C6.82405594,4.73286713 6.54377622,4.37034965 6.42461538,3.99608392 C6.27692308,4.80335664 6.23496503,5.54517483 7.40811189,6.26685315 C8.05594406,6.66629371 8.79608392,6.9213986 9.37342657,7.4165035 C9.82825175,7.80587413 10.1655944,8.33286713 10.6758042,8.64839161 C11.6827972,9.27104895 13.2067133,8.71888112 13.5793007,7.59608392 C13.6341545,7.35784071 13.7140389,7.1260634 13.8176224,6.90461538 C14.0878322,6.45314685 14.686993,6.32391608 15.213986,6.34237762 C16.5969969,6.41089492 17.84884,7.18213669 18.532028,8.38657343 C19.3359441,9.84 19.158042,11.6358042 19.6900699,13.2083916 C19.7745269,13.5041085 19.9287845,13.7752105 20.1398601,13.9988811 C20.6316084,14.4688112 21.4086713,14.4117483 22.0783217,14.306014 C23.5102346,14.0792482 24.9270953,13.7659471 26.3211189,13.3678322 C26.2388811,11.848951 26.9018182,10.4022378 27.2509091,8.92195804 C27.51978,7.71065799 27.6275643,6.46916342 27.5714685,5.22965035 C27.5447427,6.07581539 27.4351275,6.9173224 27.2441958,7.7420979 L27.2441958,7.7420979 Z" id="Path"></path>
                            <path d="M6.52531469,2.26909091 C6.64811874,1.7170808 6.58924978,1.14016503 6.35748252,0.624335664 C6.14601399,0.181258741 5.54685315,-0.110769231 5.14405594,0.16951049 C4.74125874,0.44979021 4.79832168,1.0758042 4.6993007,1.5793007 C4.50797203,2.56951049 3.52447552,3.2441958 2.51748252,3.40195804 C2.04587413,3.47748252 1.52055944,3.44727273 1.15468531,3.14181818 C0.919047755,2.9161195 0.745626678,2.63344314 0.651188811,2.32111888 C0.393393301,1.62309342 0.236840632,0.891760738 0.186293706,0.149370629 C0.101102133,1.28527527 0.25960561,2.42627142 0.651188811,3.49594406 C0.745626678,3.80826832 0.919047755,4.09094467 1.15468531,4.31664336 C1.52055944,4.6220979 2.04587413,4.65230769 2.51748252,4.57678322 C3.51272727,4.41902098 4.50125874,3.73762238 4.6993007,2.75412587 C4.79496503,2.25062937 4.72951049,1.6413986 5.14573427,1.35272727 C5.56195804,1.06405594 6.15272727,1.36447552 6.35916084,1.80755245 C6.43106093,1.95494244 6.48677099,2.10969262 6.52531469,2.26909091 Z" id="Path"></path>
                        </g>
                    </g>
                </g>
            </g>
        </g>
    </g>
</svg>