<svg width="150" height="150" viewBox="0 0 150 150" xmlns="http://www.w3.org/2000/svg" xmlns:xlink="http://www.w3.org/1999/xlink"><defs><filter x="-33.5%" y="-31.6%" width="167%" height="167%" filterUnits="objectBoundingBox" id="a"><feMorphology radius="1.5" in="SourceAlpha" result="shadowSpreadOuter1"/><feOffset dy="2" in="shadowSpreadOuter1" result="shadowOffsetOuter1"/><feGaussianBlur stdDeviation="13" in="shadowOffsetOuter1" result="shadowBlurOuter1"/><feColorMatrix values="0 0 0 0 0 0 0 0 0 0 0 0 0 0 0 0 0 0 0.153736888 0" in="shadowBlurOuter1"/></filter><circle id="b" cx="53" cy="53" r="53"/></defs><g fill="none" fill-rule="evenodd"><g transform="translate(22 20)"><use fill="#000" filter="url(#a)" xlink:href="#b"/><use fill="#FFF" xlink:href="#b"/></g><path d="M69.785 46.736L75.5 46l5.715.736C97.675 48.856 110 62.87 110 79.466v.477c0 6.95-5.634 12.583-12.584 12.583-2.225 0-4.41-.59-6.333-1.71-5.076-2.956-10.27-4.434-15.583-4.434-5.313 0-10.507 1.478-15.583 4.434-6.006 3.498-13.71 1.465-17.207-4.54A12.584 12.584 0 0141 79.943v-.477c0-16.596 12.325-30.61 28.785-32.73z" fill="#E9E9E9"/><g fill-rule="nonzero"><path d="M40.693 102.2a6.598 6.598 0 012.545-5.204c.178-.152 17.866-15.21 24.675-21.646 6.852-6.476 23.835-23.717 30.899-30.829v-.032a3.283 3.283 0 012.335-1.03h.013c.891.01 1.742.374 2.364 1.012l7.29 7.306c.179-1.084-.449-2.215-1.232-2.998l-7.503-7.519a3.352 3.352 0 00-2.364-1.012h-.013a3.283 3.283 0 00-2.335 1.03v.032c-7.064 7.112-24.047 24.352-30.9 30.828-6.808 6.437-24.496 21.495-24.674 21.647l-.032.026a6.636 6.636 0 00-.99 9.43 6.736 6.736 0 01-.078-1.04z"/><path d="M103.668 39.67A5.584 5.584 0 0099.715 38h-.022a5.34 5.34 0 00-3.932 1.7v.017c-7.064 7.103-24.014 24.329-30.84 30.78-6.679 6.314-23.95 21.038-24.562 21.56a9.007 9.007 0 00-.765.679 8.888 8.888 0 00.01 12.558c1.77 1.769 3.967 2.646 6.217 2.646 2.47 0 5.004-1.058 7.1-3.154 3.435-3.434 5.065-7.866 6.641-12.152 2.059-5.596 4.185-11.376 10.423-15.204l8.008 8.008a6.065 6.065 0 003.725 1.817 4.876 4.876 0 003.918-1.45l.158-.157a1.124 1.124 0 000-1.59l-9.041-9.04 2.434-2.722 8.996 8.997a1.124 1.124 0 101.59-1.59l-9.085-9.086 2.32-2.594 8.985 8.985a1.124 1.124 0 001.59-1.59l-9.075-9.073 2.433-2.72 8.741 8.742a1.124 1.124 0 101.59-1.59l-8.83-8.83 2.32-2.594 8.61 8.61a1.124 1.124 0 101.59-1.589l-8.7-8.7 2.432-2.72 8.367 8.368a1.124 1.124 0 001.59-1.59l-8.456-8.456 2.32-2.594 8.236 8.236a1.124 1.124 0 001.59-1.59l-8.326-8.325 1.93-2.159 8.005 8.005a1.124 1.124 0 001.59 0l.158-.158c2.048-2.049 1.832-5.143-.526-7.502l-7.504-7.52zm6.97 12.688l-7.944-7.944a1.124 1.124 0 00-1.632.046L74.37 74.312a1.124 1.124 0 00.043 1.543l8.898 8.899a2.594 2.594 0 01-1.4.262 3.823 3.823 0 01-2.329-1.168l-8.621-8.621a1.124 1.124 0 00-1.345-.186c-7.531 4.223-9.886 10.625-12.163 16.818-1.562 4.244-3.036 8.253-6.12 11.338-1.663 1.662-3.614 2.502-5.505 2.501-1.675 0-3.303-.66-4.635-1.992a6.62 6.62 0 01.6-9.92c.178-.152 17.866-15.21 24.675-21.647 6.852-6.476 23.835-23.717 30.899-30.829v-.032a3.283 3.283 0 012.335-1.03h.013c.891.01 1.742.374 2.364 1.012l7.503 7.519c.924.925 1.637 2.335 1.056 3.58z" fill="#484848"/><path d="M48.813 96.084a3.749 3.749 0 10-5.301 5.302 3.749 3.749 0 005.301-5.302zm-1.589 3.712a1.5 1.5 0 110-2.122 1.49 1.49 0 010 2.122z" fill="#5BD192"/></g></g></svg>