<svg width="150" height="150" viewBox="0 0 150 150" xmlns="http://www.w3.org/2000/svg" xmlns:xlink="http://www.w3.org/1999/xlink"><defs><filter x="-33.5%" y="-31.6%" width="167%" height="167%" filterUnits="objectBoundingBox" id="a"><feMorphology radius="1.5" in="SourceAlpha" result="shadowSpreadOuter1"/><feOffset dy="2" in="shadowSpreadOuter1" result="shadowOffsetOuter1"/><feGaussianBlur stdDeviation="13" in="shadowOffsetOuter1" result="shadowBlurOuter1"/><feColorMatrix values="0 0 0 0 0 0 0 0 0 0 0 0 0 0 0 0 0 0 0.153736888 0" in="shadowBlurOuter1"/></filter><circle id="b" cx="53" cy="53" r="53"/></defs><g fill="none" fill-rule="evenodd"><g transform="translate(22 20)"><use fill="#000" filter="url(#a)" xlink:href="#b"/><use fill="#FFF" xlink:href="#b"/></g><path d="M69.785 46.736L75.5 46l5.715.736C97.675 48.856 110 62.87 110 79.466v.477c0 6.95-5.634 12.583-12.584 12.583-2.225 0-4.41-.59-6.333-1.71-5.076-2.956-10.27-4.434-15.583-4.434-5.313 0-10.507 1.478-15.583 4.434-6.006 3.498-13.71 1.465-17.207-4.54A12.584 12.584 0 0141 79.943v-.477c0-16.596 12.325-30.61 28.785-32.73z" fill="#E9E9E9"/><g fill-rule="nonzero"><path d="M59.376 48.756h38.329a5.942 5.942 0 00-5.945-5.945H53.43a5.943 5.943 0 00-5.945 5.945v40.261a5.943 5.943 0 005.945 5.945V54.7a5.943 5.943 0 015.945-5.945z"/><g fill="#5BD192"><path d="M82.635 68.077H59.599a1.486 1.486 0 100 2.972h23.036a1.486 1.486 0 000-2.972zM73.39 77.737H59.6a1.486 1.486 0 100 2.972H73.39a1.486 1.486 0 000-2.972zM61.01 48.607a1.49 1.49 0 001.487-1.486v-8.635a1.486 1.486 0 10-2.973 0v8.635a1.49 1.49 0 001.487 1.486zM84.195 37a1.49 1.49 0 00-1.486 1.486v8.635a1.486 1.486 0 002.973 0v-8.635A1.49 1.49 0 0084.195 37zM103.055 85.168l-8.828 8.427-4.562-4.578a1.482 1.482 0 10-2.096 2.096l5.603 5.603c.279.28.66.436 1.055.43.384.004.753-.146 1.025-.416l9.87-9.437a1.48 1.48 0 00.044-2.095 1.512 1.512 0 00-2.111-.03z"/></g><path d="M99.19 74.437v-25.68a7.433 7.433 0 00-7.43-7.432H53.43A7.433 7.433 0 0046 48.756v40.261a7.434 7.434 0 007.431 7.431h27.51a16.35 16.35 0 0031.582-5.945c0-7.98-5.753-14.639-13.332-16.066zm-45.759-30.14H91.76a4.471 4.471 0 014.458 4.46v3.596H48.972v-3.597a4.462 4.462 0 014.459-4.459zm0 49.179a4.472 4.472 0 01-4.459-4.459V55.31h47.246v18.845h-.044a16.374 16.374 0 00-16.08 19.32H53.43zm42.743 10.403c-7.387 0-13.375-5.988-13.375-13.376 0-7.387 5.988-13.376 13.375-13.376s13.376 5.989 13.376 13.376c-.011 7.383-5.993 13.365-13.376 13.376z" fill="#484848"/></g></g></svg>