<?xml version="1.0" encoding="UTF-8"?>
<svg width="167px" height="80px" viewBox="0 0 167 80" version="1.1" xmlns="http://www.w3.org/2000/svg" xmlns:xlink="http://www.w3.org/1999/xlink">
    <!-- Generator: Sketch 53 (72520) - https://sketchapp.com -->
    <title>review</title>
    <desc>Created with Sketch.</desc>
    <g id="Desktop-Version" stroke="none" stroke-width="1" fill="none" fill-rule="evenodd">
        <g id="No-Reviews" transform="translate(-600.000000, -246.000000)" fill-rule="nonzero">
            <g id="review" transform="translate(600.000000, 246.000000)">
                <g id="Group" transform="translate(2.601626, 2.601626)">
                    <path d="M78.6861789,67.6757724 L60.8630894,74.4377236 C55.7154472,76.3905691 50.7362602,71.224065 52.878374,66.1521951 L57.7089431,54.7138211 C58.6738211,52.4286179 58.1980488,49.7892683 56.4962602,47.9850407 L45.0458537,35.8468293 C41.7577236,32.3613008 43.4468293,26.6247154 48.0988618,25.476748 L64.601626,21.4045528 C66.4627642,20.9453659 68.0110569,19.6582114 68.8022764,17.9118699 L75.2065041,3.7801626 C77.4269919,-1.1196748 84.3860163,-1.1196748 86.6065041,3.7801626 L93.0107317,17.9118699 C93.8019512,19.6578862 95.3502439,20.9450407 97.2113821,21.4045528 L113.714146,25.476748 C118.366179,26.6247154 120.054959,32.3613008 116.767154,35.8468293 L105.316748,47.9850407 C103.614634,49.7892683 103.138862,52.4286179 104.104065,54.7138211 L108.934634,66.1521951 C111.076423,71.224065 106.097236,76.3905691 100.949919,74.4377236 L83.1268293,67.6757724 C81.695935,67.1330081 80.1164228,67.1330081 78.6861789,67.6757724 L78.6861789,67.6757724 Z" id="Path"></path>
                    <path d="M75.6718699,60.0305691 C76.636748,57.7453659 76.1613008,55.1060163 74.459187,53.3017886 L63.0087805,41.1635772 C59.7206504,37.6780488 61.4097561,31.9414634 66.0617886,30.7934959 L82.5645528,26.721626 C84.4260163,26.262439 85.9739837,24.9752846 86.7652033,23.2289431 L91.0926829,13.6803252 L86.6061789,3.78081301 C84.3856911,-1.11902439 77.4266667,-1.11902439 75.2061789,3.78081301 L68.8019512,17.9125203 C68.0107317,19.6585366 66.462439,20.9456911 64.6013008,21.4052033 L48.0985366,25.4773984 C43.4465041,26.6253659 41.7577236,32.361626 45.0455285,35.8471545 L56.495935,47.9853659 C58.1980488,49.7895935 58.6738211,52.4289431 57.7086179,54.7141463 L52.8780488,66.1521951 C50.7362602,71.224065 55.7154472,76.3905691 60.8627642,74.4377236 L71.2520325,70.4962602 L75.6718699,60.0305691 Z" id="Path"></path>
                    <path d="M19.9417886,67.7564228 L9.97105691,71.539187 C7.09138211,72.6315447 4.30601626,69.7414634 5.50406504,66.904065 L8.20617886,60.5053659 C8.74601626,59.2269919 8.48,57.7505691 7.52780488,56.7411382 L1.12227642,49.9508943 C-0.717073171,48.0009756 0.227642276,44.7918699 2.8302439,44.1495935 L12.0621138,41.8715447 C13.1034146,41.6146341 13.9694309,40.8946341 14.4120325,39.9177236 L17.9947967,32.0123577 C19.2370732,29.2712195 23.1300813,29.2712195 24.3720325,32.0123577 L27.9547967,39.9177236 C28.3973984,40.8946341 29.2634146,41.6146341 30.3047154,41.8715447 L39.5365854,44.1495935 C42.139187,44.7918699 43.0839024,48.0009756 41.2445528,49.9508943 L34.8390244,56.7411382 C33.8868293,57.7505691 33.620813,59.2269919 34.1606504,60.5053659 L36.8627642,66.904065 C38.060813,69.7414634 35.2754472,72.6318699 32.3957724,71.539187 L22.4250407,67.7564228 C21.6253659,67.4530081 20.7421138,67.4530081 19.9417886,67.7564228 Z" id="Path"></path>
                    <path d="M14.236748,69.8406504 L16.9388618,63.441626 C17.4786992,62.163252 17.2126829,60.6868293 16.2604878,59.6773984 L9.85495935,52.8871545 C8.01560976,50.9372358 8.9603252,47.7281301 11.5629268,47.0861789 L20.7947967,44.8081301 C21.8360976,44.5512195 22.7021138,43.8312195 23.1447154,42.8543089 L26.2152846,36.0786992 L24.3723577,32.0123577 C23.1300813,29.2715447 19.2370732,29.2715447 17.995122,32.0123577 L14.4123577,39.9180488 C13.9697561,40.8949593 13.1037398,41.6149593 12.062439,41.8718699 L2.83056911,44.1499187 C0.22796748,44.7921951 -0.716747967,48.0013008 1.12260163,49.9508943 L7.52813008,56.7411382 C8.4803252,57.7505691 8.74634146,59.2269919 8.20650407,60.5053659 L5.50439024,66.904065 C4.30634146,69.7414634 7.09170732,72.6318699 9.97138211,71.539187 L14.2009756,69.9343089 C14.2133333,69.9034146 14.2234146,69.8718699 14.236748,69.8406504 L14.236748,69.8406504 Z" id="Path" fill="#5BD192"></path>
                    <path d="M142.195447,67.7564228 L152.166179,71.539187 C155.045854,72.6315447 157.83122,69.7414634 156.633171,66.904065 L153.931057,60.5053659 C153.39122,59.2269919 153.657236,57.7505691 154.609431,56.7411382 L161.014959,49.9508943 C162.854309,48.0009756 161.909593,44.7918699 159.306992,44.1495935 L150.075122,41.8715447 C149.033821,41.6146341 148.167805,40.8946341 147.725203,39.9177236 L144.142439,32.0123577 C142.900163,29.2712195 139.007154,29.2712195 137.765203,32.0123577 L134.182439,39.9177236 C133.739837,40.8946341 132.873821,41.6146341 131.83252,41.8715447 L122.60065,44.1495935 C119.998049,44.7918699 119.053333,48.0009756 120.892683,49.9508943 L127.298211,56.7411382 C128.250407,57.7505691 128.516423,59.2269919 127.976585,60.5053659 L125.274472,66.904065 C124.076423,69.7414634 126.861789,72.6318699 129.741463,71.539187 L139.712195,67.7564228 C140.51187,67.4530081 141.395447,67.4530081 142.195447,67.7564228 L142.195447,67.7564228 Z" id="Path"></path>
                    <g transform="translate(119.674797, 29.918699)" id="Path">
                        <path d="M32.1486179,41.4276423 C31.9473171,41.3512195 31.7404878,41.2943089 31.5310569,41.2562602 L32.4913821,41.6204878 C32.7011382,41.7001626 32.9099187,41.7560976 33.1170732,41.795122 L32.1486179,41.4276423 Z" fill="#FEE45A"></path>
                        <path d="M17.9297561,34.1765854 C18.4695935,32.8982114 18.2035772,31.4217886 17.2513821,30.4123577 L10.8458537,23.6221138 C9.00650407,21.6721951 9.95121951,18.4630894 12.5538211,17.820813 L21.7856911,15.5427642 C22.8269919,15.2858537 23.6930081,14.5658537 24.1356098,13.5889431 L26.9063415,7.47479675 L24.4676423,2.09333333 C23.2253659,-0.647479675 19.3323577,-0.647479675 18.0904065,2.09333333 L14.5076423,9.99902439 C14.0650407,10.975935 13.1990244,11.695935 12.1577236,11.9528455 L2.92585366,14.2308943 C0.323252033,14.8731707 -0.621463415,18.0822764 1.21788618,20.0318699 L7.62341463,26.8221138 C8.57560976,27.8315447 8.84162602,29.3079675 8.30178862,30.5863415 L5.5996748,36.9850407 C4.40162602,39.822439 7.18699187,42.7128455 10.0666667,41.6201626 L15.6868293,39.4878049 L17.9297561,34.1765854 Z" fill="#5BD192"></path>
                    </g>
                </g>
                <g id="Group" fill="#38845B">
                    <path d="M108.952195,56.3668293 C108.363577,54.9726829 108.654309,53.3609756 109.692358,52.2601626 L121.142764,40.1222764 C123.28878,37.8471545 124.042602,34.6978862 123.159024,31.6982114 C122.275772,28.6982114 119.935935,26.4601626 116.899837,25.7108943 L100.397398,21.6390244 C99.2539837,21.356748 98.3193496,20.5798374 97.8334959,19.5076423 L91.4292683,5.37593496 C90.001626,2.22569106 86.9661789,0.268943089 83.5079675,0.268943089 C80.0494309,0.268943089 77.0139837,2.22601626 75.5866667,5.37593496 L69.182439,19.5073171 C68.6962602,20.5798374 67.7619512,21.356748 66.6188618,21.6390244 L50.1160976,25.7108943 C47.08,26.4601626 44.7398374,28.6985366 43.8565854,31.6982114 C42.9733333,34.6978862 43.7271545,37.8471545 45.8731707,40.1222764 L57.323252,52.2601626 C58.361626,53.3609756 58.6520325,54.9726829 58.0634146,56.3665041 L53.2328455,67.804878 C51.855935,71.0656911 52.5261789,74.6747967 54.982439,77.2234146 C56.6715447,78.9762602 58.8926829,79.9034146 61.1912195,79.9030894 C62.235122,79.9030894 63.2956098,79.7118699 64.3291057,79.3196748 L66.0562602,78.6647154 C67.3157724,78.1869919 67.9495935,76.7788618 67.4721951,75.5193496 C66.9947967,74.2598374 65.5863415,73.6256911 64.3268293,74.1034146 L62.5993496,74.7586992 C61.1235772,75.3177236 59.5899187,74.9739837 58.4949593,73.8380488 C57.4,72.7021138 57.1128455,71.1560976 57.7265041,69.702439 L62.5570732,58.2637398 C63.897561,55.0897561 63.2357724,51.419187 60.8715447,48.9125203 L49.4214634,36.7746341 C48.4793496,35.7756098 48.1479675,34.3928455 48.535935,33.0754472 C48.9239024,31.7580488 49.9515447,30.7752846 51.2845528,30.4461789 L67.7876423,26.3743089 C70.3905691,25.7313821 72.518374,23.9626016 73.6250407,21.5206504 L80.0292683,7.38894309 C80.6656911,5.98504065 81.9661789,5.14634146 83.5076423,5.14634146 C85.0491057,5.14634146 86.3495935,5.98471545 86.9860163,7.38894309 L93.3902439,21.5209756 C94.4969106,23.9626016 96.6247154,25.7317073 99.2279675,26.3743089 L115.730732,30.4461789 C117.064065,30.7752846 118.091707,31.7580488 118.47935,33.0754472 C118.866992,34.3928455 118.53626,35.7756098 117.593496,36.7746341 L106.143089,48.9128455 C103.778862,51.419187 103.117398,55.0894309 104.457561,58.264065 L109.28813,69.702439 C109.902114,71.1560976 109.614959,72.7021138 108.52,73.8380488 C107.425366,74.9746341 105.890407,75.3186992 104.41561,74.758374 L86.5918699,67.9964228 C84.6026016,67.2419512 82.4117073,67.2419512 80.4221138,67.9964228 L74.0682927,70.4068293 C72.8087805,70.884878 72.1752846,72.2930081 72.6530081,73.5525203 C73.1307317,74.8117073 74.5388618,75.4458537 75.798374,74.9681301 L82.1518699,72.5577236 C83.0253659,72.2260163 83.9879675,72.2260163 84.8617886,72.5577236 L102.684878,79.3193496 C105.994146,80.5756098 109.57561,79.7720325 112.03252,77.2234146 C114.48878,74.6744715 115.158699,71.0653659 113.781789,67.804878 L108.952195,56.3668293 Z" id="Path"></path>
                    <path d="M42.7229268,44.3834146 L33.4910569,42.1053659 C33.1730081,42.0269919 32.9134959,41.8110569 32.7782114,41.5128455 L29.1954472,33.6071545 C28.2204878,31.4556098 26.1473171,30.1190244 23.7853659,30.1190244 C21.4234146,30.1190244 19.3502439,31.4552846 18.3752846,33.6071545 L14.7925203,41.5128455 C14.6572358,41.8110569 14.3977236,42.0269919 14.0796748,42.1053659 L4.84747967,44.3834146 C2.77398374,44.8949593 1.17560976,46.4234146 0.572357724,48.4725203 C-0.0308943089,50.521626 0.484227642,52.6725203 1.9495935,54.2260163 L8.35479675,61.0162602 C8.64357724,61.3222764 8.72455285,61.7704065 8.56065041,62.1580488 L5.85853659,68.5570732 C4.91804878,70.7843902 5.37593496,73.2491057 7.05333333,74.9895935 C8.20682927,76.1866667 9.72390244,76.8198374 11.2939837,76.8198374 C12.0071545,76.8198374 12.7313821,76.6894309 13.4370732,76.4214634 L23.4078049,72.6386992 C23.4078049,72.6386992 23.4081301,72.638374 23.4081301,72.638374 C23.6507317,72.5463415 23.9180488,72.5460163 24.1613008,72.6386992 L34.1320325,76.4214634 C36.3918699,77.2780488 38.838374,76.7300813 40.5160976,74.9895935 C42.1934959,73.2487805 42.6513821,70.7837398 41.7108943,68.5570732 L39.0084553,62.158374 C38.844878,61.7707317 38.9258537,61.3222764 39.2143089,61.0162602 L45.6201626,54.2260163 C47.0855285,52.6721951 47.6006504,50.5209756 46.9970732,48.4725203 C46.3947967,46.4234146 44.7964228,44.8949593 42.7229268,44.3834146 Z M42.0725203,50.8786992 L35.6666667,57.6692683 C34.0523577,59.3811382 33.6003252,61.8881301 34.5157724,64.055935 L37.2182114,70.4549593 C37.4552846,71.0165854 37.1860163,71.4162602 37.0045528,71.6045528 C36.8227642,71.7928455 36.4334959,72.0770732 35.8630894,71.8604878 L25.8923577,68.0780488 C25.2130081,67.8201626 24.499187,67.6913821 23.7853659,67.6913821 C23.0715447,67.6913821 22.3573984,67.8201626 21.678374,68.0780488 L21.6786992,68.0777236 L11.7076423,71.8604878 C11.1385366,72.0773984 10.7482927,71.7931707 10.5665041,71.6045528 C10.3850407,71.4162602 10.1157724,71.0162602 10.3528455,70.4549593 L13.0549593,64.055935 C13.9704065,61.8881301 13.5186992,59.3811382 11.9037398,57.6689431 L5.49821138,50.8786992 C5.13398374,50.4926829 5.18764228,50.0686179 5.25203252,49.8500813 C5.31642276,49.6315447 5.50113821,49.2465041 6.01626016,49.1190244 L15.2484553,46.8409756 C17.0263415,46.4022764 18.4796748,45.1941463 19.2354472,43.5261789 L22.8182114,35.6204878 C23.064065,35.0780488 23.5297561,34.9970732 23.7853659,34.9970732 C24.0409756,34.9970732 24.5066667,35.0780488 24.7525203,35.6204878 L28.3352846,43.5261789 C29.0910569,45.1941463 30.5443902,46.4026016 32.3222764,46.8409756 L41.5544715,49.1190244 C42.0692683,49.2465041 42.2543089,49.6315447 42.3186992,49.8500813 C42.3830894,50.0686179 42.4364228,50.4930081 42.0725203,50.8786992 L42.0725203,50.8786992 Z" id="Shape"></path>
                    <path d="M165.390244,54.2263415 C167.52813,51.96 167.539512,48.3925203 165.415935,46.1034146 C164.499187,45.1160976 162.956423,45.0585366 161.96878,45.9746341 C160.981463,46.8907317 160.923577,48.4341463 161.84,49.4217886 C162.171057,49.7785366 162.284228,50.4100813 161.841951,50.8786992 L155.437073,57.6689431 C153.821789,59.380813 153.370081,61.8878049 154.285528,64.055935 L156.987967,70.4549593 C157.225041,71.0165854 156.955772,71.4162602 156.774634,71.6045528 C156.593496,71.7928455 156.204228,72.0777236 155.633171,71.8604878 L145.662114,68.0773984 C144.30374,67.5626016 142.807805,67.5619512 141.44878,68.0773984 L131.478049,71.8604878 C130.908293,72.076748 130.518374,71.7928455 130.336585,71.6045528 C130.154797,71.4162602 129.885854,71.0162602 130.122927,70.4549593 L132.825366,64.055935 C133.740813,61.8881301 133.289106,59.3811382 131.674472,57.6692683 L125.268293,50.8786992 C124.904065,50.4926829 124.957724,50.0689431 125.021789,49.8504065 C125.086179,49.6318699 125.27122,49.2468293 125.786341,49.1193496 L135.017236,46.8413008 C136.795772,46.4029268 138.249106,45.1947967 139.005528,43.5261789 L142.588293,35.6204878 C142.834146,35.0780488 143.299837,34.9970732 143.555772,34.9970732 C143.811707,34.9970732 144.277073,35.0780488 144.522927,35.6204878 L148.106016,43.5261789 C148.862114,45.195122 150.315772,46.403252 152.092358,46.8409756 L152.835122,47.0243902 C154.141789,47.3482927 155.464715,46.5492683 155.787967,45.241626 C156.110894,43.9339837 155.312846,42.6120325 154.005203,42.2887805 L153.261138,42.1050407 C152.94374,42.0269919 152.684553,41.8110569 152.549268,41.5128455 L148.966179,33.6071545 C147.991545,31.455935 145.918374,30.1190244 143.556423,30.1190244 C143.556098,30.1190244 143.556098,30.1190244 143.556098,30.1190244 C141.193821,30.1190244 139.12065,31.4552846 138.145691,33.6071545 L134.562927,41.5128455 C134.427642,41.8110569 134.16813,42.0269919 133.850081,42.1053659 L124.618211,44.3837398 C122.54439,44.8952846 120.946341,46.4237398 120.343089,48.4728455 C119.740163,50.521626 120.254959,52.6725203 121.720325,54.2260163 L128.126179,61.0165854 C128.414634,61.3222764 128.495285,61.7704065 128.331707,62.1580488 L125.629268,68.5573984 C124.68878,70.7843902 125.146992,73.2491057 126.82439,74.9895935 C128.502114,76.7304065 130.948293,77.278374 133.208455,76.4214634 L143.178862,72.638374 C143.422114,72.5463415 143.689756,72.5463415 143.932358,72.638374 L153.903089,76.4214634 C154.609106,76.6891057 155.333008,76.8198374 156.046179,76.8198374 C157.61626,76.8198374 159.133333,76.1866667 160.287154,74.9895935 C161.964553,73.2487805 162.422114,70.784065 161.481951,68.5570732 L158.779512,62.1580488 C158.615935,61.7707317 158.696585,61.3229268 158.985691,61.0165854 L165.390244,54.2263415 Z" id="Path"></path>
                </g>
            </g>
        </g>
    </g>
</svg>