<svg width="150" height="150" viewBox="0 0 150 150" xmlns="http://www.w3.org/2000/svg" xmlns:xlink="http://www.w3.org/1999/xlink"><defs><filter x="-33.5%" y="-31.6%" width="167%" height="167%" filterUnits="objectBoundingBox" id="a"><feMorphology radius="1.5" in="SourceAlpha" result="shadowSpreadOuter1"/><feOffset dy="2" in="shadowSpreadOuter1" result="shadowOffsetOuter1"/><feGaussianBlur stdDeviation="13" in="shadowOffsetOuter1" result="shadowBlurOuter1"/><feColorMatrix values="0 0 0 0 0 0 0 0 0 0 0 0 0 0 0 0 0 0 0.153736888 0" in="shadowBlurOuter1"/></filter><circle id="b" cx="53" cy="53" r="53"/></defs><g fill="none" fill-rule="evenodd"><g transform="translate(22 20)"><use fill="#000" filter="url(#a)" xlink:href="#b"/><use fill="#FFF" xlink:href="#b"/></g><path d="M69.785 46.736L75.5 46l5.715.736C97.675 48.856 110 62.87 110 79.466v.477c0 6.95-5.634 12.583-12.584 12.583-2.225 0-4.41-.59-6.333-1.71-5.076-2.956-10.27-4.434-15.583-4.434-5.313 0-10.507 1.478-15.583 4.434-6.006 3.498-13.71 1.465-17.207-4.54A12.584 12.584 0 0141 79.943v-.477c0-16.596 12.325-30.61 28.785-32.73z" fill="#E9E9E9"/><g fill-rule="nonzero"><path d="M76 108c-19.33 0-35-15.67-35-35s15.67-35 35-35 35 15.67 35 35c-.022 19.321-15.679 34.978-35 35zm0-67.308c-17.843 0-32.308 14.465-32.308 32.308S58.157 105.308 76 105.308 108.308 90.843 108.308 73C108.288 55.165 93.835 40.713 76 40.692z" fill="#484848"/><path d="M71.96 85.115c-.304 0-.6-.103-.84-.294L57.66 74.05a1.346 1.346 0 011.68-2.103l12.464 9.972 20.69-23.275a1.346 1.346 0 012.012 1.787L72.968 84.663a1.344 1.344 0 01-1.007.452z" fill="#5BD192"/></g></g></svg>