<?xml version="1.0" encoding="UTF-8"?>
<svg width="82px" height="82px" viewBox="0 0 82 82" version="1.1" xmlns="http://www.w3.org/2000/svg" xmlns:xlink="http://www.w3.org/1999/xlink">
    <!-- Generator: Sketch 53 (72520) - https://sketchapp.com -->
    <title>Group 3</title>
    <desc>Created with Sketch.</desc>
    <g id="Desktop-Version" stroke="none" stroke-width="1" fill="none" fill-rule="evenodd">
        <g id="Overview-Page---Appointment-Warning" transform="translate(-640.000000, -243.000000)">
            <g id="Group-3" transform="translate(641.000000, 244.000000)">
                <rect id="Rectangle" fill="#F6D5D5" x="7.87353191" y="16.8898723" width="53" height="44" rx="8"></rect>
                <circle id="Oval" fill="#FFFFFF" cx="57.3735319" cy="59.3898723" r="19.5"></circle>
                <path d="M58.5775319,7.46434043 L55.829617,7.46434043 L55.829617,5.40629787 C55.826053,2.42195954 53.4076575,0.00356406481 50.4233191,-1.13686838e-13 L50.1884255,-1.13686838e-13 C47.2040872,0.00356406481 44.7856917,2.42195954 44.7821277,5.40629787 L44.7821277,7.46434043 L20.7467234,7.46434043 L20.7467234,5.40629787 C20.7431595,2.42202589 18.3248676,0.00365783079 15.3405957,-1.12477403e-13 L15.1053617,-1.12477403e-13 C12.1210898,0.00365783079 9.70279791,2.42202589 9.69923404,5.40629787 L9.69923404,7.46434043 L6.95131915,7.46434043 C3.1140667,7.46865522 0.00440875131,10.578237 -9.23705556e-14,14.4154894 L-9.23705556e-14,61.5068936 C0.00431514978,65.3441848 3.11402787,68.4538214 6.95131915,68.4580426 L38.8085106,68.4580426 C39.3725461,68.4580426 39.8297872,68.0008014 39.8297872,67.436766 C39.8297872,66.8727305 39.3725461,66.4154894 38.8085106,66.4154894 L6.95131915,66.4154894 C4.2415933,66.4124877 2.04564879,64.2166194 2.04255319,61.5068936 L2.04255319,26.7688511 L63.4861277,26.7688511 L63.4861277,39.0142979 L65.5286809,39.0142979 L65.5286809,14.4149787 C65.5240845,10.5779533 62.4145576,7.46865485 58.5775319,7.46434043 L58.5775319,7.46434043 Z M50.1884255,2.04255319 L50.4234894,2.04255319 C52.2803788,2.04461692 53.7851703,3.54940848 53.787234,5.40629787 L53.787234,9.32238298 C53.7851701,11.1793387 52.280275,12.6841577 50.4233191,12.6861277 L50.1884255,12.6861277 C48.3315361,12.6840639 46.8267446,11.1792724 46.8246809,9.32238298 L46.8246809,5.40629787 C46.8267446,3.54940848 48.3315361,2.04461692 50.1884255,2.04255319 L50.1884255,2.04255319 Z M15.1055319,2.04255319 L15.340766,2.04255319 C17.1975612,2.04471089 18.7022004,3.54950238 18.7041702,5.40629787 L18.7041702,9.32238298 C18.7022003,11.1792448 17.1974575,12.6840638 15.3405957,12.6861277 L15.1053617,12.6861277 C13.2485388,12.6839701 11.7438508,11.179206 11.7417872,9.32238298 L11.7417872,8.49821277 C11.7417872,8.49378723 11.7417872,8.48953191 11.7417872,8.48510638 C11.7417872,8.48068085 11.7417872,8.47625532 11.7417872,8.47182979 L11.7417872,5.40629787 C11.7438508,3.54947485 13.2485388,2.04471071 15.1053617,2.04255319 L15.1055319,2.04255319 Z M2.04255319,24.7262979 L2.04255319,14.4149787 C2.04602369,11.7054912 4.24183121,9.50998828 6.95131915,9.50689362 L9.70382979,9.50689362 C9.80578133,12.4175277 12.192945,14.7254803 15.1053617,14.7291915 L15.3405957,14.7291915 C18.2528144,14.7252058 20.6396728,12.4173301 20.741617,9.50689362 L44.7865532,9.50689362 C44.8887777,12.4174587 47.2760679,14.7251626 50.1884255,14.7286809 L50.4234894,14.7286809 C53.3357149,14.7249796 55.7228016,12.417327 55.8250213,9.50689362 L58.5775319,9.50689362 C61.2871913,9.50998903 63.4830322,11.70583 63.4861277,14.4154894 L63.4861277,24.7268085 L2.04255319,24.7262979 Z" id="Shape" stroke="#BBBBBB" fill="#BBBBBB" fill-rule="nonzero"></path>
                <g id="229-wall-clock" transform="translate(38.000000, 38.000000)" fill-rule="nonzero">
                    <path d="M24.346078,38.8887946 C13.1736135,38.8887946 4.11558829,29.8352059 4.11558829,18.6660018 C4.10872079,14.0589544 5.68298015,9.58866931 8.57605817,6 C3.78159684,9.83662786 0.993966902,15.6418966 1.0000098,21.7772007 C1.0000098,32.9464048 10.0575157,41.9999935 21.2304995,41.9999935 C27.3638333,42.0048912 33.1665487,39.2242129 37,34.4432025 C33.4151149,37.3262739 28.9489984,38.8953157 24.346078,38.8887946 Z" id="Path" fill="#EDD2D2"></path>
                    <path d="M21.499895,43 C9.64513845,43 0,33.3554146 0,21.5 C0,9.64458537 9.64503347,0 21.499895,0 C33.3547566,0 43,9.64458537 43,21.5 C43,33.3554146 33.3549665,43 21.499895,43 Z M21.499895,2.09756098 C10.8023325,2.09756098 2.09959912,10.8016 2.09959912,21.5 C2.09959912,32.1984 10.8022275,40.902439 21.499895,40.902439 C32.1973526,40.902439 40.9004009,32.1984 40.9004009,21.5 C40.9004009,10.8016 32.1972476,2.09756098 21.499895,2.09756098 Z" id="Shape" fill="#FF5F5F"></path>
                    <path d="M20.7516467,22.9998915 C20.470183,22.9999354 20.200258,22.8854553 20.0013806,22.68169 L14.313568,16.8550116 C13.8976608,16.4328765 13.8951157,15.7454832 14.3081597,15.3204189 C14.7206736,14.8953547 15.3921485,14.8928594 15.8076316,15.3149944 L15.8143124,15.3217208 L21.150905,20.7885376 L32.8444521,19.6947402 C33.4268495,19.6413631 33.9421206,20.0804226 33.9955671,20.6766842 C34.0485894,21.2729459 33.6198508,21.8006418 33.0370292,21.8556463 L20.8485716,22.9956604 C20.8162279,22.9986981 20.7838843,23 20.7516467,23 L20.7516467,22.9998915 Z" id="Path" fill="#FF5F5F"></path>
                </g>
            </g>
        </g>
    </g>
</svg>