<?xml version="1.0" encoding="UTF-8"?>
<svg width="85px" height="87px" viewBox="0 0 85 87" version="1.1" xmlns="http://www.w3.org/2000/svg" xmlns:xlink="http://www.w3.org/1999/xlink">
    <!-- Generator: Sketch 53 (72520) - https://sketchapp.com -->
    <title>Group 14</title>
    <desc>Created with Sketch.</desc>
    <g id="Desktop-Version" stroke="none" stroke-width="1" fill="none" fill-rule="evenodd">
        <g id="Edit-appointment-successfully-Copy" transform="translate(-640.000000, -273.000000)">
            <g id="Group-14" transform="translate(641.000000, 274.000000)">
                <g id="Group-13">
                    <rect id="Rectangle" fill="#BDDCCB" x="7.87353191" y="16.8898723" width="53" height="44" rx="8"></rect>
                    <circle id="Oval" fill="#FFFFFF" cx="57.3735319" cy="59.3898723" r="19.5"></circle>
                    <path d="M58.5775319,7.46434043 L55.829617,7.46434043 L55.829617,5.40629787 C55.826053,2.42195954 53.4076575,0.00356406481 50.4233191,0 L50.1884255,0 C47.2040872,0.00356406481 44.7856917,2.42195954 44.7821277,5.40629787 L44.7821277,7.46434043 L20.7467234,7.46434043 L20.7467234,5.40629787 C20.7431595,2.42202589 18.3248676,0.00365783079 15.3405957,1.20943444e-15 L15.1053617,1.20943444e-15 C12.1210898,0.00365783079 9.70279791,2.42202589 9.69923404,5.40629787 L9.69923404,7.46434043 L6.95131915,7.46434043 C3.1140667,7.46865522 0.00440875131,10.578237 3.62376795e-13,14.4154894 L3.62376795e-13,61.5068936 C0.00431514978,65.3441848 3.11402787,68.4538214 6.95131915,68.4580426 L38.8085106,68.4580426 C39.3725461,68.4580426 39.8297872,68.0008014 39.8297872,67.436766 C39.8297872,66.8727305 39.3725461,66.4154894 38.8085106,66.4154894 L6.95131915,66.4154894 C4.2415933,66.4124877 2.04564879,64.2166194 2.04255319,61.5068936 L2.04255319,26.7688511 L63.4861277,26.7688511 L63.4861277,39.0142979 L65.5286809,39.0142979 L65.5286809,14.4149787 C65.5240845,10.5779533 62.4145576,7.46865485 58.5775319,7.46434043 L58.5775319,7.46434043 Z M50.1884255,2.04255319 L50.4234894,2.04255319 C52.2803788,2.04461692 53.7851703,3.54940848 53.787234,5.40629787 L53.787234,9.32238298 C53.7851701,11.1793387 52.280275,12.6841577 50.4233191,12.6861277 L50.1884255,12.6861277 C48.3315361,12.6840639 46.8267446,11.1792724 46.8246809,9.32238298 L46.8246809,5.40629787 C46.8267446,3.54940848 48.3315361,2.04461692 50.1884255,2.04255319 L50.1884255,2.04255319 Z M15.1055319,2.04255319 L15.340766,2.04255319 C17.1975612,2.04471089 18.7022004,3.54950238 18.7041702,5.40629787 L18.7041702,9.32238298 C18.7022003,11.1792448 17.1974575,12.6840638 15.3405957,12.6861277 L15.1053617,12.6861277 C13.2485388,12.6839701 11.7438508,11.179206 11.7417872,9.32238298 L11.7417872,8.49821277 C11.7417872,8.49378723 11.7417872,8.48953191 11.7417872,8.48510638 C11.7417872,8.48068085 11.7417872,8.47625532 11.7417872,8.47182979 L11.7417872,5.40629787 C11.7438508,3.54947485 13.2485388,2.04471071 15.1053617,2.04255319 L15.1055319,2.04255319 Z M2.04255319,24.7262979 L2.04255319,14.4149787 C2.04602369,11.7054912 4.24183121,9.50998828 6.95131915,9.50689362 L9.70382979,9.50689362 C9.80578133,12.4175277 12.192945,14.7254803 15.1053617,14.7291915 L15.3405957,14.7291915 C18.2528144,14.7252058 20.6396728,12.4173301 20.741617,9.50689362 L44.7865532,9.50689362 C44.8887777,12.4174587 47.2760679,14.7251626 50.1884255,14.7286809 L50.4234894,14.7286809 C53.3357149,14.7249796 55.7228016,12.417327 55.8250213,9.50689362 L58.5775319,9.50689362 C61.2871913,9.50998903 63.4830322,11.70583 63.4861277,14.4154894 L63.4861277,24.7268085 L2.04255319,24.7262979 Z" id="Shape" stroke="#BBBBBB" fill="#BBBBBB" fill-rule="nonzero"></path>
                    <g id="008-tick" transform="translate(34.873532, 36.889872)" fill-rule="nonzero">
                        <path d="M6.53395154,27.2368718 C6.53395154,14.5986375 16.6942866,4.34940789 29.2231529,4.34940789 C32.2365741,4.34795062 35.2201474,4.95151144 38,6.12491685 C33.9583009,2.80308641 28.9025964,0.992569056 23.6892013,1.00002292 C11.160335,1.00002292 1,11.2492526 1,23.8874868 C1.00132815,33.1083436 6.48414598,41.4295556 14.9123542,45 C9.60603837,40.657163 6.52721609,34.1297237 6.53395154,27.2368718 L6.53395154,27.2368718 Z" id="Path" fill="#BDDCCB"></path>
                        <path d="M24.0024553,6.93094357e-05 C14.2945923,-0.00160525279 5.5419983,5.8458544 1.82708851,14.8152562 C-1.887598,23.7844348 0.167173448,34.1083342 7.03378961,40.9710251 C16.4056283,50.3429916 31.5998404,50.3429916 40.971121,40.9710251 C50.3429597,31.5996167 50.3429597,16.4051972 40.971121,7.03323065 C36.4808393,2.51719092 30.3708501,-0.0152733457 24.0024553,6.93094357e-05 Z M24.0024553,45.7714368 C12.0015898,45.7714368 2.2334434,36.0031571 2.2334434,24.0021279 C2.2334434,12.0010986 12.0015898,2.23281894 24.0024553,2.23281894 C36.0033208,2.23281894 45.7714672,12.0010986 45.7714672,24.0021279 C45.7714672,36.0031571 36.0033208,45.7714368 24.0024553,45.7714368 Z" id="Shape" stroke="#38845B" fill="#38845B"></path>
                        <path d="M35.1223797,16.3060173 L20.7328487,30.2911809 L12.8970141,22.3127571 C12.4628727,21.8713184 11.7593295,21.8713184 11.3251881,22.3127571 C10.891604,22.7536291 10.891604,23.4691112 11.3251881,23.9104365 L19.9413627,32.6713232 C20.1503475,32.8856826 20.4361453,33.0043047 20.7329602,32.9998805 C21.0206184,33.002977 21.2975163,32.8888133 21.5018196,32.6828833 L36.6605444,17.9493706 C37.1002589,17.5159787 37.1146374,16.8032167 36.6928682,16.3520312 C36.2704262,15.901223 35.56965,15.8806909 35.1223797,16.3060173 L35.1223797,16.3060173 Z" id="Path" stroke="#38845B" fill="#38845B"></path>
                    </g>
                </g>
            </g>
        </g>
    </g>
</svg>