<svg xmlns="http://www.w3.org/2000/svg" width="118.807" height="99.948" viewBox="0 0 118.807 99.948">
  <g id="laptop" transform="translate(0 -0.037)">
    <path id="Path" d="M96.177,24.48V64.118l-24.9,5.657H26.854L0,64.118V0H96.177V5.788" transform="translate(11.315 22.667)" fill="#fff"/>
    <path id="Path-2" data-name="Path" d="M73.166,73.547H28.74a1.849,1.849,0,0,1-.388-.041L1.5,67.849A1.886,1.886,0,0,1,0,66V1.886A1.885,1.885,0,0,1,1.886,0H98.063a1.885,1.885,0,0,1,1.886,1.886V7.674a1.886,1.886,0,1,1-3.772,0v-3.9H3.772v60.7l25.165,5.3H72.954L96.177,64.5V26.367a1.886,1.886,0,0,1,3.772,0V66a1.886,1.886,0,0,1-1.468,1.84L73.583,73.5A2.012,2.012,0,0,1,73.166,73.547Z" transform="translate(9.429 20.781)" fill="#858585"/>
    <circle id="Oval" cx="18.858" cy="18.858" r="18.858" transform="translate(75.433 1.923)" fill="#ffc951"/>
    <g id="Group" transform="translate(73.481)">
      <path id="Shape" d="M0,20.744A20.744,20.744,0,1,1,20.744,41.488,20.767,20.767,0,0,1,0,20.744Z" transform="translate(0.066 0.037)" fill="#858585"/>
      <path id="Path-3" data-name="Path" d="M1.886,18.858A1.885,1.885,0,0,1,0,16.972V1.886a1.886,1.886,0,0,1,3.772,0V16.972A1.885,1.885,0,0,1,1.886,18.858Z" transform="translate(18.924 7.58)" fill="#fff"/>
      <path id="Path-4" data-name="Path" d="M1.886,5.658A1.885,1.885,0,0,1,0,3.772V1.886a1.886,1.886,0,0,1,3.772,0V3.772A1.885,1.885,0,0,1,1.886,5.658Z" transform="translate(18.924 28.324)" fill="#fff"/>
    </g>
    <path id="Path-5" data-name="Path" d="M73.547,0,71.661,3.772H43.374L41.488,0H0A11.315,11.315,0,0,0,11.315,11.315H103.72A11.315,11.315,0,0,0,115.035,0Z" transform="translate(1.886 86.785)" fill="#fff"/>
    <path id="Shape-2" data-name="Shape" d="M13.2,15.087A13.216,13.216,0,0,1,0,1.886,1.886,1.886,0,0,1,1.886,0H43.374a1.888,1.888,0,0,1,1.688,1.042l1.363,2.73H72.381l1.364-2.73A1.888,1.888,0,0,1,75.433,0h41.488a1.886,1.886,0,0,1,1.886,1.886,13.217,13.217,0,0,1-13.2,13.2Z" transform="translate(0 84.899)" fill="#858585"/>
    <rect id="Rectangle" width="22" height="60.346" transform="translate(22.63 24.552)" fill="#fff"/>
    <g id="Group-2" data-name="Group" transform="translate(33.702 48.343)">
      <path id="Path-6" data-name="Path" d="M9.006,16.154H0V0H9.006V1.669H1.878v5.2h6.7V8.532h-6.7v5.945H9.006v1.677Z" transform="translate(0.201 0.035)" fill="#ffc951" stroke="#ffc951" stroke-miterlimit="10" stroke-width="1"/>
      <path id="Path-7" data-name="Path" d="M5.525,0A7.153,7.153,0,0,1,6.972.133l-.255,1.7a6.264,6.264,0,0,0-1.326-.166A3.227,3.227,0,0,0,2.878,2.862,4.353,4.353,0,0,0,1.834,5.835v6.5H0V.222H1.513l.21,2.243h.089A5.331,5.331,0,0,1,3.437.641,3.65,3.65,0,0,1,5.525,0Z" transform="translate(12.51 3.858)" fill="#ffc951" stroke="#ffc951" stroke-miterlimit="10" stroke-width="1"/>
      <path id="Path-8" data-name="Path" d="M5.525,0A7.153,7.153,0,0,1,6.972.133l-.255,1.7a6.264,6.264,0,0,0-1.326-.166A3.227,3.227,0,0,0,2.878,2.862,4.353,4.353,0,0,0,1.834,5.835v6.5H0V.222H1.513l.21,2.243h.089A5.331,5.331,0,0,1,3.437.641,3.649,3.649,0,0,1,5.525,0Z" transform="translate(21.748 3.858)" fill="#ffc951" stroke="#ffc951" stroke-miterlimit="10" stroke-width="1"/>
      <path id="Shape-3" data-name="Shape" d="M2.63,11.79A5.018,5.018,0,0,1,.686,9.6,7.618,7.618,0,0,1,0,6.266,6.672,6.672,0,0,1,1.48,1.651,5.238,5.238,0,0,1,5.591,0,5.121,5.121,0,0,1,9.629,1.69a6.659,6.659,0,0,1,1.5,4.576,6.676,6.676,0,0,1-1.491,4.623,5.255,5.255,0,0,1-4.122,1.664A5.458,5.458,0,0,1,2.63,11.79Z" transform="translate(30.311 3.858)" fill="#ffc951" stroke="#ffc951" stroke-miterlimit="10" stroke-width="1"/>
      <path id="Path-9" data-name="Path" d="M5.525,0A7.153,7.153,0,0,1,6.972.133l-.255,1.7a6.267,6.267,0,0,0-1.326-.166A3.227,3.227,0,0,0,2.878,2.862,4.353,4.353,0,0,0,1.834,5.835v6.5H0V.222H1.513l.21,2.243h.089A5.331,5.331,0,0,1,3.437.641,3.649,3.649,0,0,1,5.525,0Z" transform="translate(44.654 3.858)" fill="#ffc951" stroke="#ffc951" stroke-miterlimit="10" stroke-width="1"/>
    </g>
  </g>
</svg>
