<?xml version="1.0" encoding="utf-8"?>
<!-- Generator: Adobe Illustrator 21.0.0, SVG Export Plug-In . SVG Version: 6.00 Build 0)  -->
<svg version="1.1" id="Laag_1" xmlns="http://www.w3.org/2000/svg" xmlns:xlink="http://www.w3.org/1999/xlink" x="0px" y="0px"
	 viewBox="0 0 540.9 402.4" style="enable-background:new 0 0 540.9 402.4;" xml:space="preserve">
<style type="text/css">
	.st0{opacity:0.341;}
	.st1{fill:none;}
	.st2{clip-path:url(#SVGID_2_);}
	.st3{fill:#FFBF41;}
	.st4{fill:#3D3C3C;}
	.st5{clip-path:url(#SVGID_4_);}
	.st6{fill:#BBBBBB;}
	.st7{fill:#484848;}
	.st8{fill:#858585;}
</style>
<g class="st0">
	<g>
		<path class="st1" d="M502.1,151.8l6.9-6.5l31.8,34.1l-6.9,6.5L502.1,151.8z"/>
		<g>
			<defs>
				
					<rect id="SVGID_1_" x="516.7" y="142.3" transform="matrix(0.7314 -0.682 0.682 0.7314 27.1581 400.1399)" width="9.5" height="46.7"/>
			</defs>
			<clipPath id="SVGID_2_">
				<use xlink:href="#SVGID_1_"  style="overflow:visible;"/>
			</clipPath>
			<g transform="rotate(-43 443.56 -560.106)" class="st2">
				<path class="st3" d="M120.2,126.7L0.9,74.6L107,0.5L120.2,126.7z"/>
			</g>
		</g>
	</g>
	<path class="st3" d="M390.3,320.5l51.2-47.7L406,241.6L390.3,320.5z"/>
	<path class="st4" d="M302.7,402.4l18.1-16.9l31.1-54.9l-90.8,1.3L302.7,402.4z"/>
	<g>
		<path class="st1" d="M502.1,151.8l6.9-6.5l31.8,34.1l-6.9,6.5L502.1,151.8z"/>
		<g>
			<defs>
				
					<rect id="SVGID_3_" x="516.7" y="142.3" transform="matrix(0.7314 -0.682 0.682 0.7314 27.1581 400.1399)" width="9.5" height="46.7"/>
			</defs>
			<clipPath id="SVGID_4_">
				<use xlink:href="#SVGID_3_"  style="overflow:visible;"/>
			</clipPath>
			<g transform="rotate(-43 443.56 -560.106)" class="st5">
				<path class="st3" d="M120.2,126.7l-59.6-26l-59.6-26L54,37.5L107,0.5l6.6,63.1L120.2,126.7z"/>
			</g>
		</g>
	</g>
	<path class="st6" d="M393.6,304.2l-3.2,16.2l51.2-47.7L406,241.6L393.6,304.2z"/>
	<path class="st4" d="M284.1,370.8l18.6,31.6l18.1-16.9l8.7-15.3l22.4-39.6l-45.4,0.6l-45.4,0.6L284.1,370.8z"/>
	<path class="st4" d="M248.1,45.7l-10.6,67l-52.7-42.5L248.1,45.7z"/>
	<path class="st7" d="M321.1,217.2l-52.9,19.6l9.4-55.6L321.1,217.2z"/>
	<path class="st7" d="M377.1,145.2l-52.9,19.6l9.4-55.6L377.1,145.2z"/>
	<path class="st7" d="M458.3,216.7l-48-29.6l49.6-26.8L458.3,216.7z"/>
	<path class="st6" d="M224.9,227.2l-113.1-8.2l64.3-93.9L224.9,227.2z"/>
	<path class="st8" d="M15.4,64.8L93.6,9.3l9.3,95.7L15.4,64.8z"/>
	<path class="st4" d="M77.1,205.9l-10.6,67l-52.7-42.5L77.1,205.9z"/>
</g>
</svg>
